<svg xmlns="http://www.w3.org/2000/svg" viewBox="0 0 500 500"><g id="freepik--background-complete--inject-84"><path d="M447.07,182.53H259.12s18.63-50.9,47.31-50.9,37.67,35.13,37.67,35.13,19.35-19.09,35.24-19.09,29.72,25.23,29.72,25.23S431.52,159.33,447.07,182.53Z" style="fill:#ebebeb"></path><path d="M356.22,63.77H268.39S288,35.34,303.48,35.34s20,19,20,19,10.91-8.85,21-7.27S356.22,63.77,356.22,63.77Z" style="fill:#ebebeb"></path><path d="M224,129H52.93S76.36,76.67,101.42,73.4s37.06,38.87,37.06,38.87,16.16-14.89,28.87-14.89S189.87,117,189.87,117,215.3,103.55,224,129Z" style="fill:#ebebeb"></path><path d="M419.93,302.88h-78s13.4-25.58,27.94-25.95S392,296.29,392,296.29,414.65,278.14,419.93,302.88Z" style="fill:#ebebeb"></path><polygon points="231.46 222.36 229.61 258.69 221.18 465.2 74.21 465.2 65.78 258.69 63.93 222.36 231.46 222.36" style="fill:#ebebeb"></polygon><polygon points="231.46 222.36 230 251.11 65.14 246.18 63.93 222.36 231.46 222.36" style="opacity:0.1"></polygon><g style="opacity:0.1"><path d="M89.68,249.38A3.9,3.9,0,0,0,86,253.47l0,6.4.06,12.81.12,25.63.57,51.25.57,51.25.12,25.62,0,12.81,0,6.41a2.1,2.1,0,1,0,4.18,0l0-6.41.06-12.81L92,400.81l.57-51.25.57-51.25.12-25.63.06-12.81,0-6.4A3.9,3.9,0,0,0,89.68,249.38Zm0,0a3.91,3.91,0,0,1,3.69,4.09l0,6.4.06,12.81.12,25.63.57,51.25.57,51.25.12,25.62.06,12.81,0,6.41c.1,3.1-2.42,6-5.25,5.87-2.84.07-5.35-2.77-5.25-5.87l0-6.41.06-12.81.11-25.62.58-51.25.56-51.25.12-25.63L86,259.87l0-6.4A3.91,3.91,0,0,1,89.68,249.38Z"></path><path d="M109,249.38a3.9,3.9,0,0,0-3.65,4.09l0,6.4.06,12.81.12,25.63.57,51.25.57,51.25.12,25.62,0,12.81,0,6.41a2.1,2.1,0,1,0,4.18,0l0-6.41.06-12.81.12-25.62.57-51.25.57-51.25.12-25.63.06-12.81,0-6.4A3.9,3.9,0,0,0,109,249.38Zm0,0a3.91,3.91,0,0,1,3.69,4.09l0,6.4.06,12.81.12,25.63.57,51.25.57,51.25.12,25.62.06,12.81,0,6.41c.1,3.1-2.42,6-5.25,5.87-2.84.07-5.35-2.77-5.25-5.87l0-6.41.06-12.81.11-25.62.57-51.25.57-51.25.12-25.63.06-12.81,0-6.4A3.91,3.91,0,0,1,109,249.38Z"></path><path d="M128.35,249.38a3.88,3.88,0,0,0-3.63,4.09l0,6.4.06,12.81.12,25.63.57,51.25.57,51.25.12,25.62,0,12.81,0,6.41a2.1,2.1,0,1,0,4.18,0l0-6.41.06-12.81.12-25.62.57-51.25.57-51.25.12-25.63.06-12.81,0-6.4A3.9,3.9,0,0,0,128.35,249.38Zm0,0a3.91,3.91,0,0,1,3.7,4.09l0,6.4.06,12.81.12,25.63.57,51.25.57,51.25.12,25.62.06,12.81,0,6.41c.1,3.1-2.42,6-5.26,5.87-2.83.07-5.34-2.77-5.24-5.87l0-6.41.06-12.81.11-25.62.57-51.25.57-51.25.12-25.63.06-12.81,0-6.4A3.91,3.91,0,0,1,128.35,249.38Z"></path><path d="M147.7,249.38a3.88,3.88,0,0,0-3.64,4.09l0,6.4.06,12.81.12,25.63.57,51.25.57,51.25.12,25.62,0,12.81,0,6.41a2.1,2.1,0,1,0,4.18,0l0-6.41.06-12.81.12-25.62.57-51.25.57-51.25.12-25.63.06-12.81,0-6.4A3.9,3.9,0,0,0,147.7,249.38Zm0,0a3.91,3.91,0,0,1,3.69,4.09l0,6.4.06,12.81.12,25.63.57,51.25.57,51.25.12,25.62.06,12.81,0,6.41c.1,3.1-2.42,6-5.25,5.87-2.84.07-5.35-2.77-5.25-5.87l0-6.41.06-12.81.11-25.62.57-51.25.57-51.25.12-25.63.06-12.81,0-6.4A3.91,3.91,0,0,1,147.7,249.38Z"></path><path d="M167,249.38a3.88,3.88,0,0,0-3.64,4.09l0,6.4.06,12.81.12,25.63.57,51.25.57,51.25.12,25.62,0,12.81,0,6.41a2.1,2.1,0,1,0,4.18,0l0-6.41.06-12.81.12-25.62.57-51.25.57-51.25.12-25.63.06-12.81,0-6.4A3.9,3.9,0,0,0,167,249.38Zm0,0a3.91,3.91,0,0,1,3.69,4.09l0,6.4.06,12.81.12,25.63.57,51.25.57,51.25.12,25.62.06,12.81,0,6.41c.1,3.1-2.42,6-5.25,5.87-2.84.07-5.35-2.77-5.25-5.87l0-6.41.06-12.81.11-25.62.57-51.25.57-51.25.12-25.63.06-12.81,0-6.4A3.91,3.91,0,0,1,167,249.38Z"></path><path d="M186.38,249.38a3.88,3.88,0,0,0-3.64,4.09l0,6.4.06,12.81.12,25.63.57,51.25.57,51.25.12,25.62.05,12.81,0,6.41a2.1,2.1,0,1,0,4.18,0l0-6.41.06-12.81.12-25.62.57-51.25.57-51.25.12-25.63.06-12.81,0-6.4A3.9,3.9,0,0,0,186.38,249.38Zm0,0a3.91,3.91,0,0,1,3.69,4.09l0,6.4.06,12.81.12,25.63.57,51.25.57,51.25.12,25.62.06,12.81,0,6.41c.1,3.1-2.42,6-5.25,5.87-2.84.07-5.35-2.77-5.25-5.87l0-6.41.06-12.81.11-25.62.57-51.25.57-51.25.12-25.63.06-12.81,0-6.4A3.91,3.91,0,0,1,186.38,249.38Z"></path><path d="M205.72,249.38a3.88,3.88,0,0,0-3.64,4.09l0,6.4.06,12.81.12,25.63.57,51.25.57,51.25.12,25.62.05,12.81,0,6.41a2.1,2.1,0,1,0,4.18,0l0-6.41.06-12.81.12-25.62.57-51.25.57-51.25.12-25.63.06-12.81,0-6.4A3.9,3.9,0,0,0,205.72,249.38Zm0,0a3.91,3.91,0,0,1,3.69,4.09l0,6.4.06,12.81.12,25.63.57,51.25.57,51.25.12,25.62.06,12.81,0,6.41c.1,3.1-2.42,6-5.25,5.87-2.84.07-5.35-2.77-5.25-5.87l0-6.41.06-12.81.11-25.62.57-51.25.57-51.25.12-25.63.06-12.81,0-6.4A3.92,3.92,0,0,1,205.72,249.38Z"></path></g><polygon points="179.68 184.07 179.68 209.56 169.93 209.56 169.93 192.73 125.44 192.73 125.44 209.56 115.71 209.56 115.71 184.07 179.68 184.07" style="fill:#ebebeb"></polygon><rect x="115.71" y="198.51" width="9.73" height="11.05" style="opacity:0.1"></rect><rect x="169.93" y="198.51" width="9.75" height="11.05" style="opacity:0.1"></rect><rect x="52.93" y="204.43" width="189.52" height="29.42" style="fill:#ebebeb"></rect></g><g id="freepik--Floor--inject-84"><polygon points="52.93 464.7 102.2 464.45 151.47 464.37 250 464.2 348.54 464.36 397.8 464.45 447.07 464.7 397.8 464.94 348.54 465.03 250 465.2 151.47 465.03 102.2 464.94 52.93 464.7" style="fill:#263238"></polygon></g><g id="freepik--Plants--inject-84"><path d="M80.14,424.17c-5.39.19-11.39.5-15.85-3-4.12-3.22-7.79-8-7.25-13.54.16-1.58.52-2.55,2.21-1.88,2.56,1,4.55,3.86,6.32,5.85A55,55,0,0,0,73,418.69c1.92,1.47,4,2.74,5.94,4.16l.73.55a2.55,2.55,0,0,1,.28.21h.15a.25.25,0,0,1,.22.12.13.13,0,0,1,0,.09A.27.27,0,0,1,80.14,424.17Z" style="fill:#855CD3"></path><path d="M80.4,423.82c-4.73-.08-9.84.13-13.62-3.08a22.16,22.16,0,0,1-4.4-5.34c-.55-.89-2.19-3.55-1.51-4.6,1.23-1.92,6.87,5.88,7.65,6.62A23.09,23.09,0,0,0,79,422.85l.73.55a25.67,25.67,0,0,1-7.85-3c-3.36-2-5.23-5-7.86-7.73-.57-.6-2.28-2.61-2.92-1.36-.43.83,1.15,3.43,1.5,4a21.83,21.83,0,0,0,4.15,5.08c3.78,3.3,8.86,3.18,13.63,3.38A.13.13,0,0,1,80.4,423.82Z" style="fill:#fff"></path><path d="M83.11,427.46c0,.21-.09.41-.13.62,0,0,0,0,0,0a.13.13,0,0,1-.1.11.23.23,0,0,1-.28-.11.15.15,0,0,1,0-.13.41.41,0,0,1,0-.08,1.21,1.21,0,0,1,0-.18v0s0,0,0-.06c-1-3.56-1.33-7.27-2.33-10.83s-2.16-6.74-2.85-10.22c-.43-2.19-2-13.17,2.89-11.8,2.14.6,3.61,3.71,4.42,5.57a22.56,22.56,0,0,1,1.79,7.89C86.92,414.94,84.47,421,83.11,427.46Z" style="fill:#855CD3"></path><path d="M84.66,413.78a26.38,26.38,0,0,0-.78-7.46c-.22-.84-1.27-4.88-2.64-4.78-.88.06-1,1.8-1.11,2.38-.31,2.45.49,4.94,1,7.32a100.79,100.79,0,0,1,1.78,14.67c0,.31-.09.63-.12.94s-.07.52-.1.78c0,.09,0,.17,0,.26s0,.14,0,.21a.23.23,0,0,0,.28.11l.09-.6c0,.17,0,.32,0,.49,0,0,0,0,0,0,0-.17.07-.34.1-.5l0-.12c0-.28,0-.55,0-.82A109.56,109.56,0,0,0,84.66,413.78ZM83,424.87c-.13-2.88-.42-5.75-.82-8.6-.33-2.31-.76-4.59-1.25-6.86a24.25,24.25,0,0,1-.62-3.89c0-1,.1-4.7,2-2.41,1.37,1.67,1.71,5.22,1.87,7.26a36.16,36.16,0,0,1-.13,6.82C83.83,419.76,83.41,422.32,83,424.87Z" style="fill:#fff"></path><path d="M86,442.23h0l-.19,0c-4.93-.25-11.49.21-15.58-3.05-3-2.4-6-7.16-5-11.19,1.08-4.55,7.23.91,8.85,2.23A149.66,149.66,0,0,1,86.11,442a.47.47,0,0,0,.06.09v0C86.22,442.17,86.12,442.21,86,442.23Z" style="fill:#855CD3"></path><path d="M86.18,442.09c-.29-.17-.57-.35-.85-.53-3.24-2-6.4-4.22-9.43-6.55-.77-.58-6.31-5.51-7.14-3.75-.5,1.07,1.32,3.24,1.91,4a15.08,15.08,0,0,0,3.74,3.34c3.28,2,7.26,2.49,11,3.47a5.11,5.11,0,0,1,.53.13l.09.06h0C86.12,442.21,86.22,442.17,86.18,442.09Zm-9.74-2.8a15.3,15.3,0,0,1-4.25-2.87c-.83-.79-3.74-3.74-3-4.95.41-.64.76-.3,1.54.09a8.25,8.25,0,0,1,1,.6c.83.54,1.59,1.18,2.36,1.78,1.35,1.09,2.72,2.13,4.12,3.15,2.29,1.67,4.64,3.24,7,4.73C82.37,440.91,79.25,440.56,76.44,439.29Z" style="fill:#fff"></path><path d="M95,432.09a29,29,0,0,1-8.44,14.74.14.14,0,0,1-.09.05.21.21,0,0,1-.25-.09.2.2,0,0,1,0-.28,3.07,3.07,0,0,0,.25-.26c.82-6.69,1.72-13.34,2.41-20.06.16-1.58,1.4-11.65,4.49-10,1.91,1,2,5.14,2.2,7A29.32,29.32,0,0,1,95,432.09Z" style="fill:#855CD3"></path><path d="M93.21,423.12c-.16-.56-.46-1.14-1.08-.74-1.2.75-1.68,5.48-1.88,6.79-.83,5.4-2.1,10.59-3.41,15.88-.1.44-.21.89-.32,1.34l-.3.4a.21.21,0,0,0,.25.09s0-.09,0-.13.28-.36.4-.54h0a34.36,34.36,0,0,0,4.88-9.5,32.57,32.57,0,0,0,1.43-6.62C93.46,428,93.84,425.15,93.21,423.12Zm-6.32,22.72c0,.09-.12.17-.18.27.06-.19.12-.36.17-.55a97.75,97.75,0,0,0,3-12.28c.36-2.11.59-4.24,1-6.34.18-.88.62-3.41,1.35-3.82s.72.57.8,1.14c0,.41,0,1.15,0,1.54A33.87,33.87,0,0,1,86.89,445.84Z" style="fill:#fff"></path><path d="M87.38,461.26h-1c0-.86,0-1.73,0-2.59-.12-3.5-.26-7-.47-10.49-.12-2-.26-4-.47-5.94a1.36,1.36,0,0,1,0-.2c0-.16,0-.32,0-.48s0-.35-.07-.52a42.49,42.49,0,0,0-3.38-12.85c-.63-1.37-1.31-2.69-2-4l-.21-.38-.06-.1c-.06-.13-.14-.26-.21-.39L79.2,423c-2.28-4-4.88-7.84-7.35-11.7-.71-1.1-1.42-2.21-2.12-3.32a.82.82,0,0,1-.12-.2,2,2,0,0,1-.16-.24c-3.11-4.9-6.16-9.84-9.38-14.65-.13-.17.16-.33.28-.16,2.18,3.19,4.43,6.33,6.67,9.48.3.42.59.85.89,1.26.6.84,1.18,1.67,1.76,2.5,1.17,1.67,2.33,3.34,3.45,5a141.45,141.45,0,0,1,9.07,14.67c.19.38.37.77.56,1.16.11.24.23.48.33.73s.26.56.38.84a45.34,45.34,0,0,1,3.32,15.51c0,.36,0,.74.06,1.12,0,.16,0,.34,0,.51s0,.19,0,.28,0,.23,0,.36h0c0,.08,0,.17,0,.26,0,.32,0,.64,0,1q.21,5.25.31,10.49C87.3,459,87.34,460.15,87.38,461.26Z" style="fill:#855CD3"></path><path d="M58,397.91c-2.7-3.63-6.15-11.11-2.18-15a4.23,4.23,0,0,1,5.63-.41c2.1,1.52,3,4.39,3.72,6.76,1.82,6.34,3,12.81,5.3,19a6.6,6.6,0,0,1,.25.67c.05.13-.16.18-.21.05s-.14-.4-.22-.6C66,405.28,61.19,402.21,58,397.91Z" style="fill:#855CD3"></path><path d="M70.5,408.29a.61.61,0,0,0-.07-.1,44.19,44.19,0,0,1-2.52-4.7A90.88,90.88,0,0,1,64,393.11c-.43-1.36-2.37-8-4.75-5.37-1,1.12-.86,3.1-.7,4.47a16.67,16.67,0,0,0,2.07,6.24c2.14,3.85,5.46,6.76,9,9.35l.47.36.1.17.07.11s0,0,.06.05a.15.15,0,0,0,.21-.1A.1.1,0,0,0,70.5,408.29Zm-1-.73A35.79,35.79,0,0,1,61.86,400a19,19,0,0,1-2.47-5,15.73,15.73,0,0,1-.53-2.45,9.74,9.74,0,0,1-.11-1.87c0-1.37.61-2.86,1.42-3,1-.18,1.33.41,2,1.56a10.33,10.33,0,0,1,.6,1.2,32.72,32.72,0,0,1,1.11,3.15c.56,1.77,1.13,3.52,1.77,5.26.42,1.17.88,2.34,1.38,3.48A46.6,46.6,0,0,0,70,408Z" style="fill:#fff"></path><path d="M383.91,438c-3.6,1.77-7.59,3.81-11.68,2.8-3.78-.93-7.74-3.08-9.05-7-.37-1.11-.42-1.88.93-1.94,2.05-.09,4.26,1.23,6.08,2a40,40,0,0,0,7.23,2.53c1.75.41,3.53.65,5.29,1l.67.14.25.06.11,0a.19.19,0,0,1,.18,0l.06.05A.21.21,0,0,1,383.91,438Z" style="fill:#855CD3"></path><path d="M384,437.67c-3.24,1.38-6.64,3.09-10.19,2.06a16.32,16.32,0,0,1-4.62-2.28c-.64-.44-2.56-1.74-2.42-2.67.25-1.67,6.45,1.9,7.21,2.17a17.23,17.23,0,0,0,8.75.5l.67.14a19.32,19.32,0,0,1-6.25.35c-2.89-.34-5.07-1.78-7.69-2.86-.57-.23-2.35-1.07-2.4,0,0,.69,1.83,2,2.23,2.25a16.25,16.25,0,0,0,4.37,2.18c3.57,1.09,7-.54,10.28-1.86Z" style="fill:#fff"></path><path d="M386.92,439.31c0,.16.07.31.11.47h0a.12.12,0,0,1,0,.11.17.17,0,0,1-.22,0,.13.13,0,0,1,0-.09s0,0,0-.06l0-.15h0l0,0c-1.73-2.13-3.11-4.53-4.88-6.64s-3.52-3.92-5-6.07c-1-1.35-5.34-8.35-1.64-8.9,1.64-.24,3.59,1.42,4.71,2.44a16.7,16.7,0,0,1,3.61,4.81C385.7,429.65,385.89,434.54,386.92,439.31Z" style="fill:#855CD3"></path><path d="M383.81,429.55a20,20,0,0,0-2.8-4.82c-.41-.51-2.35-2.93-3.25-2.44-.59.31-.16,1.54,0,1.95.53,1.75,1.83,3.21,2.88,4.68a73.83,73.83,0,0,1,5.68,9.42c.07.22.13.45.2.67s.12.37.17.56l.06.19a.88.88,0,0,0,0,.15.17.17,0,0,0,.22,0l-.12-.44c.05.11.1.22.16.33s0,0,0,0l-.09-.38,0-.08c-.08-.19-.17-.38-.26-.56A81.74,81.74,0,0,0,383.81,429.55Zm2.27,8c-1-1.91-2-3.77-3.19-5.59-.92-1.46-1.91-2.88-2.93-4.27a17.83,17.83,0,0,1-1.61-2.45C378,424.6,377,422,379,423c1.45.71,2.76,3,3.49,4.35a28.25,28.25,0,0,1,2,4.67C385.07,433.87,385.56,435.73,386.08,437.58Z" style="fill:#fff"></path><path d="M393.4,448.46h0l-.13.08c-3.42,1.33-7.73,3.65-11.51,2.68-2.78-.71-6.25-3-6.83-6.06-.65-3.42,5.18-1.59,6.69-1.19a112.76,112.76,0,0,1,11.77,4.29l.07,0h0S393.46,448.41,393.4,448.46Z" style="fill:#855CD3"></path><path d="M393.47,448.31l-.74-.1c-2.82-.4-5.63-.91-8.4-1.57-.69-.16-6-1.82-6-.37,0,.88,1.89,1.79,2.51,2.11a11.16,11.16,0,0,0,3.55,1.13c2.86.39,5.69-.53,8.52-1l.39-.07h.09C393.47,448.41,393.52,448.35,393.47,448.31ZM386,449.38a11.28,11.28,0,0,1-3.76-.66c-.8-.28-3.68-1.39-3.52-2.45.08-.56.42-.43,1.07-.41a8.65,8.65,0,0,1,.89.09c.73.12,1.44.32,2.14.5,1.25.32,2.5.61,3.76.88,2.07.43,4.14.78,6.23,1.06C390.53,448.67,388.3,449.38,386,449.38Z" style="fill:#fff"></path><path d="M396.41,438.83a21.67,21.67,0,0,1-1.23,12.58l-.05.07a.17.17,0,0,1-.2,0,.16.16,0,0,1-.07-.2L395,451c-1.48-4.79-2.9-9.58-4.48-14.35-.37-1.12-2.6-8.34,0-8.17,1.6.11,2.95,2.87,3.62,4.08A21.79,21.79,0,0,1,396.41,438.83Z" style="fill:#855CD3"></path><path d="M392.46,433.29c-.28-.33-.66-.63-1-.18-.59.88.53,4.24.8,5.19,1.08,3.92,1.8,7.83,2.52,11.82.06.33.13.67.19,1,0,.12-.05.24-.08.36a.16.16,0,0,0,.2,0s0-.07,0-.11.07-.32.1-.49h0a25.56,25.56,0,0,0,.41-7.94,23.78,23.78,0,0,0-1-4.93A13.83,13.83,0,0,0,392.46,433.29Zm2.64,17.35c0,.08,0,.16,0,.24,0-.15,0-.28-.06-.42a70.81,70.81,0,0,0-1.7-9.26c-.4-1.55-.89-3.06-1.24-4.62-.14-.65-.62-2.5-.24-3s.66.17.88.53.39.77.51,1A25.21,25.21,0,0,1,395.1,450.64Z" style="fill:#fff"></path><path d="M400.13,461l-.67.3c-.27-.58-.55-1.16-.83-1.74q-1.71-3.51-3.52-7c-.68-1.32-1.38-2.62-2.12-3.89a.54.54,0,0,1-.07-.13,3.21,3.21,0,0,1-.19-.31,3,3,0,0,0-.21-.33,31.38,31.38,0,0,0-6.21-7.7c-.84-.73-1.71-1.42-2.6-2.1l-.25-.19-.07-.05-.27-.2-.2-.15c-2.77-2-5.71-3.83-8.56-5.7l-2.45-1.61a.71.71,0,0,1-.14-.1,1.18,1.18,0,0,1-.19-.11c-3.6-2.38-7.18-4.81-10.83-7.09-.14-.08,0-.27.14-.19,2.45,1.5,4.94,2.94,7.42,4.4l1,.59,2,1.15c1.3.78,2.59,1.56,3.87,2.37a105.94,105.94,0,0,1,10.63,7.19l.73.62.45.39.52.46a33.85,33.85,0,0,1,7,9.52c.13.24.26.49.38.74l.18.34.1.18c0,.08.08.16.12.24h0l.09.18c.11.21.21.43.32.64,1.16,2.33,2.29,4.68,3.41,7C399.39,459.47,399.76,460.22,400.13,461Z" style="fill:#855CD3"></path><path d="M360.86,426.91c-2.94-1.64-7.56-5.66-6.05-9.52a3.16,3.16,0,0,1,3.7-2c1.89.39,3.4,2.06,4.58,3.46,3.17,3.75,6,7.77,9.4,11.3a4.6,4.6,0,0,1,.37.38c.07.07-.05.17-.12.1l-.34-.35C368.54,429.48,364.34,428.85,360.86,426.91Z" style="fill:#855CD3"></path><path d="M372.52,430.15l-.08-.06a33.49,33.49,0,0,1-3.14-2.41,66.85,66.85,0,0,1-5.79-5.87c-.71-.79-4.06-4.73-4.87-2.2-.33,1.07.37,2.37.89,3.25a12.53,12.53,0,0,0,3.31,3.61,22.67,22.67,0,0,0,8.93,3.61l.43.1.12.09.07.05a.07.07,0,0,0,.06,0,.1.1,0,0,0,.11-.12A.05.05,0,0,0,372.52,430.15Zm-.94-.18a26.56,26.56,0,0,1-7.47-2.86,13.92,13.92,0,0,1-3.21-2.67,10.67,10.67,0,0,1-1.11-1.49,9.12,9.12,0,0,1-.65-1.24c-.38-.94-.45-2.13.05-2.47s1-.14,1.83.44a7.68,7.68,0,0,1,.77.64,24.37,24.37,0,0,1,1.72,1.8c.92,1,1.84,2,2.8,3,.64.67,1.31,1.32,2,1.94a35.07,35.07,0,0,0,3.76,3Z" style="fill:#fff"></path><path d="M418.58,404.42c-.48,3.84-1.21,7.64-2,11.42-.44,2.15-.9,4.29-1.34,6.45-.47,2.36-1.18,4.78-.54,7.17h0a1.94,1.94,0,0,1,0,.33l0,0a.29.29,0,0,1-.5-.08,1.24,1.24,0,0,1,0-.16l0,0a9.65,9.65,0,0,1-.83-2,51.92,51.92,0,0,1-1.91-5.55,47.93,47.93,0,0,1-1.86-11.84,40.26,40.26,0,0,1,1.11-10.66c.69-2.79,1.66-6.94,3.74-9.08,1.88-1.92,3.45,1.16,4,2.73C419.61,396.7,419,400.79,418.58,404.42Z" style="fill:#855CD3"></path><path d="M415.14,396.27c-1.4,0-2.42,4.52-2.92,6.48a39.27,39.27,0,0,0-1.19,9.41,50.45,50.45,0,0,0,2.9,16.73c.07.21.14.43.22.65l0,0a1.13,1.13,0,0,0,0,.15.29.29,0,0,0,.5.09q-.14-.7-.21-1.41c-.06-.43-.1-.84-.13-1.26-.38-4.59.28-9.29.86-13.85C415.92,408,417,396.28,415.14,396.27Zm-1,31.79c.07.62.17,1.24.29,1.84-.15-.44-.29-.89-.42-1.34a55.63,55.63,0,0,1-2.64-14.75,40.38,40.38,0,0,1,.61-8.43,39.06,39.06,0,0,1,1.09-4.42c.2-.6,1.21-4.38,2.08-4.19.61.13.75,3.53.76,3.61,0,.67,0,1.36,0,2.05,0,1.4-.11,2.81-.23,4.21-.27,3-.7,6.07-1.07,9.11A52.83,52.83,0,0,0,414.13,428.06Z" style="fill:#fff"></path><path d="M440.61,415c-2.57,5-6.89,8.85-11.36,12.14-2.4,1.76-4.88,3.41-7.31,5.11a39,39,0,0,0-6.31,4.85l-.24.26a10.8,10.8,0,0,0-1.31,1.81.16.16,0,0,1-.12.08c0,.07,0,.14-.08.22s-.11,0-.1,0a2.13,2.13,0,0,1,0-.25v0a.18.18,0,0,1,0-.2.56.56,0,0,0,0-.08l0-.24c.73-5.86,4.83-11.78,8.3-16.29s7.74-8.5,13.08-10.56c1.35-.52,4.41-1.94,5.78-.85S441.16,414,440.61,415Z" style="fill:#855CD3"></path><path d="M436.64,415c-1.22-1.22-4.81,1.79-5.71,2.5a59.8,59.8,0,0,0-7.44,7.23A53.67,53.67,0,0,0,414,438.5h0c-.05.06-.08.11-.13.16l0,.25,0,.08a.18.18,0,0,0,0,.2l.18-.2c.45-.56.92-1.09,1.4-1.62l.24-.26a114.33,114.33,0,0,1,11.12-9.81,55.34,55.34,0,0,0,7.4-7.2C434.71,419.44,437.67,416.07,436.64,415Zm-1.12,2.68c-3,5-8.28,8.71-12.74,12.37a61.29,61.29,0,0,0-8.46,8,57,57,0,0,1,8.78-12.35,77.1,77.1,0,0,1,6-6.22,31.32,31.32,0,0,1,3.66-2.93,12.86,12.86,0,0,1,2.48-1.34C437,414.78,436,416.86,435.52,417.72Z" style="fill:#fff"></path><path d="M413.27,451.12a.34.34,0,0,1-.26.15l.06.09a.09.09,0,0,1-.14.12c-4.75-4.83-9.32-10.7-11.69-17.1a26.47,26.47,0,0,1-1.7-8.43c-.05-2-.15-5.94,1.53-7.38,3.4-2.88,6.49,9.37,6.95,11.22.84,3.36,1.4,6.79,2.17,10.17.85,3.7,2,7.34,3.08,11A.27.27,0,0,1,413.27,451.12Z" style="fill:#855CD3"></path><path d="M413.27,451.12c-.19-.31-.37-.62-.54-.95a57.11,57.11,0,0,1-6.11-16.45,52.75,52.75,0,0,0-2.26-8.57c-.27-.68-1.12-3.29-2.25-2-.57.69-.09,5.63.14,6.91A36,36,0,0,0,405,438.5a59.74,59.74,0,0,0,7.79,12.65c.09.11.17.23.26.33a.08.08,0,0,0,0-.12.7.7,0,0,1-.06-.09A.32.32,0,0,0,413.27,451.12Zm-6.89-10.53a41.86,41.86,0,0,1-3.27-8.17,30.23,30.23,0,0,1-.71-3.43,19.34,19.34,0,0,1-.23-2.73c0-2.24.19-2.82.57-2.9s.55.19,1.21,1.53a15.42,15.42,0,0,1,1,2.72q.51,2,.93,4c.58,2.66,1.12,5.34,1.9,8a44.26,44.26,0,0,0,4.72,10.7A66.61,66.61,0,0,1,406.38,440.59Z" style="fill:#fff"></path><path d="M428.5,439.38a16.84,16.84,0,0,1-3.12,6.47c-2.81,3.9-6.42,7.13-9.5,10.81-.46.55-.91,1.11-1.34,1.68,0,.07-.4.88-.39.81s.05-.32.15-.84h0c.5-2.58,2.12-10.36,4.14-14.34a34,34,0,0,1,4.5-7c.87-1,2.92-3.12,4.46-2.66S428.74,438.14,428.5,439.38Z" style="fill:#855CD3"></path><path d="M426,437.8c-1.65-1-5.9,6.57-6.47,7.55a48,48,0,0,0-4.85,11.58c-.14.46-.25.91-.37,1.37s-.16.83-.16.85.36-.74.4-.81a3.25,3.25,0,0,1,.23-.29c.36-.48.74-.94,1.11-1.39,1.85-2.76,3.74-5.5,5.54-8.3a45.92,45.92,0,0,0,3.43-6.32C425.06,441.54,426.71,438.25,426,437.8Zm-.47,2.14c-2.35,6.61-7.14,11.81-10.79,17.68l-.18.28.15-.51a55.6,55.6,0,0,1,3.88-9.65,53.59,53.59,0,0,1,3.26-5.44,27,27,0,0,1,2-2.82c.34-.38,1.31-1.37,1.64-1.2S425.67,439.5,425.52,439.94Z" style="fill:#fff"></path><path d="M445.06,384.85c-4.9,11.26-17.76,16.5-23.34,27.36l0,.05c-.17.33-.34.67-.49,1a.22.22,0,0,1-.37.06.16.16,0,0,1,0-.19,2.56,2.56,0,0,1,.11-.24c.87-6.77,3.65-13.74,6.88-19.71,2.82-5.19,6.67-10,12-12.78,1.31-.67,3.88-2.1,5.35-1S445.66,383.47,445.06,384.85Z" style="fill:#855CD3"></path><path d="M440.65,385.34c-.63-.47-1.57.09-2.11.37a19.27,19.27,0,0,0-3.72,2.54,31,31,0,0,0-5.92,7.05,63.77,63.77,0,0,0-7,14.17c-.38,1.13-.71,2.27-1,3.43l-.09.43a.23.23,0,0,0,.37-.05c.14-.34.3-.66.46-1a.41.41,0,0,1,.05-.09,37.32,37.32,0,0,1,3.49-6.42,88.39,88.39,0,0,1,7.34-8.7C433.55,396,442.8,386.91,440.65,385.34Zm-.79,2.6c-1.49,2.65-3.8,4.8-5.81,7.05s-4.09,4.52-6.09,6.82a42.77,42.77,0,0,0-4.29,5.86,33.3,33.3,0,0,0-2.68,5.42,48.58,48.58,0,0,1,1.91-5.64l0-.06a84.58,84.58,0,0,1,4.75-9.47.6.6,0,0,0,.06-.11,39.72,39.72,0,0,1,5.42-7.57A22.79,22.79,0,0,1,437,387c1.62-1,3-1.72,3.43-1.2C440.73,386.11,440.31,387.16,439.86,387.94Z" style="fill:#fff"></path><path d="M427.94,398.05c-1.47,3.17-2.88,6.39-4.27,9.62-.66,1.51-1.31,3-1.95,4.54a.41.41,0,0,0-.05.09c-.23.54-.47,1.09-.7,1.64-2.12,4.93-4.46,10-5.75,15.22a45.73,45.73,0,0,0-1.18,8.46c0,.3,0,.59,0,.88h0c0,.16,0,.32,0,.49a2.17,2.17,0,0,0,0,.26c-.09,2.47-.05,4.95,0,7.36.06,3.36.35,6.69.67,10a1.43,1.43,0,0,0,0,.29l0,.46,0,.23c0,.14,0,.28,0,.43.1,1.07.2,2.14.29,3.21h-1a66.6,66.6,0,0,1-1.23-9.91,1.34,1.34,0,0,1,0-.2c0-.32-.05-.65-.06-1s0-.79-.05-1.19c0-1-.06-1.92-.08-2.86-.1-5.49,0-11.22,1.18-16.6,0-.15.07-.3.1-.45a1.21,1.21,0,0,1,.05-.18c0-.11,0-.22.07-.33l.13-.5c.08-.31.17-.61.26-.9,0-.09.05-.18.08-.27a108.92,108.92,0,0,1,5.66-13.67c.38-.81.75-1.61,1.13-2.41.22-.45.43-.9.65-1.34l1-2,0-.06c1.57-3.16,3.2-6.29,4.75-9.47C427.76,397.78,428,397.9,427.94,398.05Z" style="fill:#855CD3"></path><path d="M173.13,414.11c-1.66,2.66-3.5,5.21-5.37,7.74-1.06,1.43-2.13,2.85-3.19,4.29s-2.5,3.12-2.85,5.1h0a1.45,1.45,0,0,1-.09.25l0,0a.23.23,0,0,1-.33-.23.51.51,0,0,1,0-.13.43.43,0,0,0,0-.05,8,8,0,0,1,.07-1.75,41.83,41.83,0,0,1,.49-4.74,39,39,0,0,1,2.67-9.36,32.73,32.73,0,0,1,4.47-7.48c1.46-1.82,3.59-4.55,5.85-5.41,2-.78,2.15,2,2,3.37C176.53,408.77,174.7,411.59,173.13,414.11Z" style="fill:#855CD3"></path><path d="M173.38,406.93c-1-.48-3.33,2.51-4.36,3.78a31.59,31.59,0,0,0-4.1,6.53,41.08,41.08,0,0,0-3.58,13.31c0,.18-.05.37-.06.56a.43.43,0,0,1,0,.05s0,.08,0,.13a.23.23,0,0,0,.34.23c.09-.38.2-.74.32-1.11s.22-.66.34-1a54,54,0,0,1,5.37-9.92C170,415.81,174.74,407.57,173.38,406.93ZM161.77,430c-.16.48-.3,1-.42,1.46l.15-1.13a45.72,45.72,0,0,1,3.1-11.78,32.33,32.33,0,0,1,3.34-6,29.12,29.12,0,0,1,2.31-2.88c.35-.38,2.39-2.82,3-2.39.4.31-.66,2.87-.67,2.92-.21.52-.44,1-.68,1.52-.5,1-1.05,2-1.62,3-1.23,2.15-2.59,4.24-3.9,6.34A42.86,42.86,0,0,0,161.77,430Z" style="fill:#fff"></path><path d="M185.75,429.45c-3.61,2.82-8.11,4.17-12.53,5.06-2.37.48-4.76.85-7.13,1.27a33.14,33.14,0,0,0-6.31,1.42l-.27.11a9,9,0,0,0-1.58.89.11.11,0,0,1-.11,0l-.14.14s-.09,0-.07-.05.08-.12.11-.18h0a.13.13,0,0,1,.05-.15l.06,0c0-.06.07-.12.11-.17,2.54-4.07,7.59-7,11.68-9.17s8.61-3.62,13.26-3.31c1.17.08,3.91.07,4.54,1.35S186.51,428.86,185.75,429.45Z" style="fill:#855CD3"></path><path d="M182.81,428.11c-.48-1.31-4.16-.32-5.06-.11a47.44,47.44,0,0,0-7.95,2.79,43.71,43.71,0,0,0-11.7,6.87h0l-.15.08-.11.17-.06,0a.12.12,0,0,0-.05.15l.2-.09c.52-.25,1-.48,1.58-.71l.27-.11a94.2,94.2,0,0,1,11.55-3.43,45.24,45.24,0,0,0,7.91-2.77C179.88,430.69,183.22,429.22,182.81,428.11Zm-1.74,1.6c-4,2.67-9.08,3.58-13.62,4.75a49.93,49.93,0,0,0-9,3,46,46,0,0,1,10.7-6.1,62.18,62.18,0,0,1,6.57-2.52,26,26,0,0,1,3.7-.91,10.21,10.21,0,0,1,2.28-.14C183.15,428,181.74,429.25,181.07,429.71Z" style="fill:#fff"></path><path d="M153.25,446.71a.23.23,0,0,1-.24,0,.29.29,0,0,0,0,.09.07.07,0,0,1-.06.09.07.07,0,0,1-.09,0c-1.85-5.19-3.21-11.08-2.77-16.61a21.76,21.76,0,0,1,1.63-6.79c.64-1.47,1.92-4.43,3.65-4.91,3.49-1,1.58,9.12,1.29,10.64-.53,2.76-1.3,5.48-1.88,8.24-.64,3-1.06,6.08-1.48,9.13A.16.16,0,0,1,153.25,446.71Z" style="fill:#855CD3"></path><path d="M153.25,446.71c0-.29-.05-.58-.07-.88a46.55,46.55,0,0,1,1.12-14.22,43.79,43.79,0,0,0,1.27-7.08c0-.6.29-2.81-1-2.22-.66.31-2,4.12-2.26,5.14a29.61,29.61,0,0,0-.85,7.14,48.52,48.52,0,0,0,1.42,12c0,.11.05.23.08.34a.07.07,0,0,0,.06-.09.2.2,0,0,1,0-.09A.25.25,0,0,0,153.25,446.71Zm-1.48-10.11a34.81,34.81,0,0,1,.39-7.14,24.19,24.19,0,0,1,.65-2.77,15.46,15.46,0,0,1,.76-2.1c.78-1.64,1.11-2,1.41-1.94s.34.34.37,1.55a12.1,12.1,0,0,1-.22,2.33c-.2,1.09-.43,2.17-.68,3.25-.48,2.17-1,4.33-1.32,6.52a35.55,35.55,0,0,0-.18,9.5A55.53,55.53,0,0,1,151.77,436.6Z" style="fill:#fff"></path><path d="M168.49,443.26A13.51,13.51,0,0,1,164,447c-3.41,1.91-7.17,3.06-10.69,4.72-.53.25-1,.51-1.57.78-.05,0-.59.51-.57.46s.15-.22.41-.57h0c1.25-1.73,5.1-6.92,7.95-9.16a27.9,27.9,0,0,1,5.72-3.65c1-.43,3.22-1.3,4.2-.43S169.09,442.43,168.49,443.26Z" style="fill:#855CD3"></path><path d="M167.18,441.24c-.86-1.32-6.59,2.83-7.35,3.36a39.32,39.32,0,0,0-7.53,6.87c-.26.29-.5.59-.74.89l-.41.57s.52-.42.57-.46l.27-.14c.43-.23.86-.44,1.29-.64,2.31-1.41,4.64-2.77,6.92-4.23a36.27,36.27,0,0,0,4.69-3.48C165.22,443.69,167.56,441.82,167.18,441.24Zm-1.08,1.42c-4,4.07-9.29,6.27-14,9.34l-.23.15.29-.33a44.23,44.23,0,0,1,6.15-5.78,41,41,0,0,1,4.27-2.89,19.89,19.89,0,0,1,2.46-1.39c.38-.16,1.43-.56,1.62-.32S166.36,442.39,166.1,442.66Z" style="fill:#fff"></path><path d="M199.33,408.74c-7.46,6.62-18.73,6.09-26.54,12.18l0,0c-.24.18-.48.37-.71.57a.18.18,0,0,1-.29-.08.14.14,0,0,1,.05-.15l.17-.14A47.73,47.73,0,0,1,183.77,409c3.85-2.86,8.35-5.12,13.22-5.31,1.2-.05,3.58-.22,4.29,1.11S200.25,407.93,199.33,408.74Z" style="fill:#855CD3"></path><path d="M195.92,407.59c-.31-.56-1.19-.46-1.68-.44a15.22,15.22,0,0,0-3.61.6,25.13,25.13,0,0,0-6.78,3.17,51.72,51.72,0,0,0-10,8.05,28.12,28.12,0,0,0-1.89,2.2c-.08.09-.15.19-.22.28a.19.19,0,0,0,.29.09c.22-.2.45-.38.68-.57l.06-.05a31.3,31.3,0,0,1,4.77-3.53,72.44,72.44,0,0,1,8.38-3.91C187.05,413,197,409.49,195.92,407.59Zm-1.47,1.65a34.41,34.41,0,0,1-6.7,3.21c-2.27,1-4.56,1.93-6.82,2.94a35.19,35.19,0,0,0-5.16,2.86,26.84,26.84,0,0,0-3.83,3.07,36.72,36.72,0,0,1,3.34-3.49l.05,0a67.6,67.6,0,0,1,6.74-5.35l.08-.07a32.1,32.1,0,0,1,6.58-3.72,18.28,18.28,0,0,1,4-1.1c1.55-.22,2.82-.23,2.93.28S195,408.82,194.45,409.24Z" style="fill:#fff"></path><path d="M182.21,412.62c-2.17,1.83-4.31,3.72-6.44,5.63l-3,2.67-.06.05-1.08,1a81.76,81.76,0,0,0-9.44,9.26,36.75,36.75,0,0,0-3.76,5.83c-.11.21-.22.42-.34.63h0c0,.12-.12.23-.17.35a1.86,1.86,0,0,0-.1.2c-.91,1.79-1.73,3.63-2.52,5.41-1.1,2.5-2,5.06-2.93,7.62a1,1,0,0,0-.08.22c-.05.12-.09.24-.13.35l-.06.18-.12.33c-.29.82-.58,1.65-.88,2.47l-.76-.35a53.87,53.87,0,0,1,2.48-7.73.47.47,0,0,1,.06-.15c.09-.25.19-.5.29-.74s.24-.6.37-.9c.3-.72.61-1.43.92-2.13A57.11,57.11,0,0,1,161,431l.23-.3.1-.12.16-.21.27-.33.5-.57.15-.17a87.19,87.19,0,0,1,8.85-8.14l1.66-1.39.93-.77,1.42-1.14.05,0c2.24-1.79,4.51-3.54,6.74-5.35C182.17,412.36,182.31,412.53,182.21,412.62Z" style="fill:#855CD3"></path><path d="M205.63,464.8s-2.86-13.36-8.58-15.42-9.2,3.94-9.2,3.94-1.35-12.77-9.46-16.59-14.2,4-14.2,4-6.23-16.2-17.35-16.2-16.73,23.71-16.73,23.71-6.56-7.07-13.29-3.08-6.72,19.64-6.72,19.64Z" style="fill:#455a64"></path><path d="M117.25,464.8H55.93s.14-9.12,6.17-11.54a8.19,8.19,0,0,1,9.61,2.3s2.46-16.78,13.69-16.78S102,453.26,102,453.26s2.52-4.38,8.76-3.57S117.25,464.8,117.25,464.8Z" style="fill:#37474f"></path><path d="M445,464.8H372.36s.16-10.81,7.31-13.68a9.73,9.73,0,0,1,11.39,2.73S394,434,407.29,434,427,451.12,427,451.12s3-5.19,10.38-4.23S445,464.8,445,464.8Z" style="fill:#37474f"></path></g><g id="freepik--Sign--inject-84"><rect x="374.02" y="39.18" width="10.14" height="425.63" style="fill:#263238"></rect><rect x="311.11" y="52.26" width="135.96" height="163.98" style="fill:#855CD3"></rect><g style="opacity:0.4"><rect x="311.11" y="52.26" width="135.96" height="163.98"></rect></g><path d="M440.23,208.54H318V60H440.23Zm-119.28-3H437.23V63H321Z" style="fill:#fff"></path><path d="M339.42,80.79A6,6,0,0,1,345.37,75a6.09,6.09,0,0,1,3.74,1.26,1,1,0,0,1,.16,1.3,1,1,0,0,1-1.29.18,4,4,0,0,0-2.61-.9A4.31,4.31,0,0,0,342.45,78a4,4,0,0,0-1.18,2.82,3.93,3.93,0,0,0,1.18,2.82,4.31,4.31,0,0,0,2.92,1.17,4.1,4.1,0,0,0,2.61-.89.93.93,0,0,1,1.13,1.47,6.09,6.09,0,0,1-3.74,1.26A5.93,5.93,0,0,1,339.42,80.79Z" style="fill:#fff"></path><path d="M352.42,85.73V76.17a.89.89,0,0,1,.89-.89.91.91,0,0,1,.91.89v8.65h4.39a.92.92,0,0,1,.89.91.91.91,0,0,1-.89.89h-5.3A.89.89,0,0,1,352.42,85.73Z" style="fill:#fff"></path><path d="M361.54,85.73V76.17a.88.88,0,0,1,.9-.89h5.29a.9.9,0,0,1,.89.89.91.91,0,0,1-.89.91h-4.39v3h3.78a.91.91,0,0,1,.89.89.9.9,0,0,1-.89.9h-3.78v3h4.39a.92.92,0,0,1,.89.91.91.91,0,0,1-.89.89h-5.25s0,0,0,0h0A.89.89,0,0,1,361.54,85.73Z" style="fill:#fff"></path><path d="M376.94,84H373l-.79,2.11a.92.92,0,0,1-.84.56.75.75,0,0,1-.31-.05.91.91,0,0,1-.54-1.16l3.58-9.55a.92.92,0,0,1,.86-.56.88.88,0,0,1,.86.56l3.58,9.55a.91.91,0,0,1-.53,1.16.75.75,0,0,1-.31.05.88.88,0,0,1-.83-.56Zm-.66-1.78L375,78.68l-1.31,3.49Z" style="fill:#fff"></path><path d="M383.41,85.73a.9.9,0,0,1-.88.89.89.89,0,0,1-.89-.89V76.3a.9.9,0,0,1,.36-.74.89.89,0,0,1,1.23.19L388.46,83V76.32a.89.89,0,0,1,.88-.88.9.9,0,0,1,.89.88v9.41a.9.9,0,0,1-.89.89.91.91,0,0,1-.67-.32l-.08-.1L383.41,79Z" style="fill:#fff"></path><path d="M403.68,86.62A4.67,4.67,0,0,1,399,81.94V76.17a.88.88,0,0,1,.89-.89.9.9,0,0,1,.91.89v5.77a2.89,2.89,0,0,0,5.77,0V76.17a.89.89,0,0,1,.91-.89.88.88,0,0,1,.89.89v5.77A4.68,4.68,0,0,1,403.68,86.62Z" style="fill:#fff"></path><path d="M416,82.22h-2v3.51a.9.9,0,0,1-.91.89.89.89,0,0,1-.89-.89V76.17a.89.89,0,0,1,.89-.89H416a3.47,3.47,0,1,1,0,6.94Zm-2-1.8h2a1.67,1.67,0,1,0,0-3.34h-2Z" style="fill:#fff"></path><path d="M336.31,103.79h-3.93l-.8,2.1a.89.89,0,0,1-.84.57.81.81,0,0,1-.31,0,.91.91,0,0,1-.53-1.16l3.58-9.55a.94.94,0,0,1,1.72,0l3.58,9.55a.92.92,0,0,1-.54,1.16.72.72,0,0,1-.31,0,.87.87,0,0,1-.82-.57Zm-.66-1.78-1.31-3.49L333,102Z" style="fill:#fff"></path><path d="M341,105.57V96a.89.89,0,0,1,.89-.89h5.3a.9.9,0,0,1,0,1.8H342.8v3h3.77a.9.9,0,0,1,0,1.8H342.8v3.89a.9.9,0,0,1-.91.89A.89.89,0,0,1,341,105.57Z" style="fill:#fff"></path><path d="M357.74,96.92h-2.58v8.65a.88.88,0,0,1-.89.89.89.89,0,0,1-.89-.89V96.92h-2.56a.9.9,0,0,1-.89-.91.88.88,0,0,1,.89-.89h6.92a.89.89,0,0,1,.89.89A.91.91,0,0,1,357.74,96.92Z" style="fill:#fff"></path><path d="M361.31,105.57V96a.88.88,0,0,1,.89-.89h5.3a.9.9,0,0,1,.89.89.92.92,0,0,1-.89.91h-4.39v3h3.77a.9.9,0,0,1,0,1.8h-3.77v3h4.39a.92.92,0,0,1,.89.91.91.91,0,0,1-.89.89h-5.3A.89.89,0,0,1,361.31,105.57Z" style="fill:#fff"></path><path d="M378.75,105.12a.89.89,0,0,1-.57,1.13,1.33,1.33,0,0,1-.36,0h0a1.16,1.16,0,0,1-.64-.18,1.57,1.57,0,0,1-.51-.57,4.29,4.29,0,0,1-.34-1.94,1.45,1.45,0,0,0-.2-.7,1.58,1.58,0,0,0-.49-.47,3.62,3.62,0,0,0-.9-.39h-1.91v3.52a.9.9,0,0,1-.91.89.89.89,0,0,1-.89-.89V96a.88.88,0,0,1,.89-.89h2.9a3.46,3.46,0,0,1,2.2,6.14,2.52,2.52,0,0,1,.57.6,3.1,3.1,0,0,1,.53,1.75,4.61,4.61,0,0,0,.07,1A.87.87,0,0,1,378.75,105.12Zm-2.27-6.52a1.67,1.67,0,0,0-1.67-1.68h-2v3.34h2A1.67,1.67,0,0,0,376.48,98.6Z" style="fill:#fff"></path><path d="M394.13,96.64l-3.33,4.56v4.37a.87.87,0,0,1-.89.89.9.9,0,0,1-.89-.89V101.2l-3.29-4.56a.87.87,0,1,1,1.41-1l2.77,3.79,2.77-3.79a.89.89,0,0,1,1.25-.2A.9.9,0,0,1,394.13,96.64Z" style="fill:#fff"></path><path d="M404,96.53a6,6,0,0,1,0,8.2,5.32,5.32,0,0,1-3.87,1.73,5.46,5.46,0,0,1-4-1.73,6,6,0,0,1,0-8.2,5.38,5.38,0,0,1,4-1.73A5.24,5.24,0,0,1,404,96.53Zm-.21,4.1a4.21,4.21,0,0,0-1.11-2.84,3.47,3.47,0,0,0-2.55-1.15,3.53,3.53,0,0,0-2.63,1.15,4.15,4.15,0,0,0-1.1,2.84,4.06,4.06,0,0,0,1.1,2.82,3.54,3.54,0,0,0,2.63,1.16,3.48,3.48,0,0,0,2.55-1.16A4.12,4.12,0,0,0,403.79,100.63Z" style="fill:#fff"></path><path d="M412.8,106.46a4.67,4.67,0,0,1-4.68-4.68V96a.88.88,0,0,1,.89-.89.91.91,0,0,1,.91.89v5.77a2.88,2.88,0,1,0,5.76,0V96a.9.9,0,0,1,.91-.89.88.88,0,0,1,.89.89v5.77A4.68,4.68,0,0,1,412.8,106.46Z" style="fill:#fff"></path><path d="M428.39,105.12a.89.89,0,0,1-.57,1.13,1.18,1.18,0,0,1-.35,0h0a1.15,1.15,0,0,1-.63-.18,1.59,1.59,0,0,1-.52-.57,4.29,4.29,0,0,1-.34-1.94,1.46,1.46,0,0,0-.19-.7,1.7,1.7,0,0,0-.49-.47,3.5,3.5,0,0,0-.91-.39h-1.91v3.52a.9.9,0,0,1-.91.89.89.89,0,0,1-.89-.89V96a.88.88,0,0,1,.89-.89h2.9a3.47,3.47,0,0,1,2.21,6.14,2.48,2.48,0,0,1,.56.6,3,3,0,0,1,.54,1.75,4.16,4.16,0,0,0,.06,1A.87.87,0,0,1,428.39,105.12Zm-2.27-6.52a1.66,1.66,0,0,0-1.67-1.68h-2v3.34h2A1.66,1.66,0,0,0,426.12,98.6Z" style="fill:#fff"></path><path d="M361.58,125.41v-9.56a.88.88,0,0,1,.9-.89h1.91a5.67,5.67,0,0,1,0,11.34h-1.91A.89.89,0,0,1,361.58,125.41Zm1.8-.91h1a3.87,3.87,0,0,0,0-7.74h-1Z" style="fill:#fff"></path><path d="M381.94,116.37a6,6,0,0,1,0,8.2,5.32,5.32,0,0,1-3.87,1.73,5.46,5.46,0,0,1-4-1.73,6,6,0,0,1,0-8.2,5.39,5.39,0,0,1,4-1.74A5.25,5.25,0,0,1,381.94,116.37Zm-.21,4.1a4.23,4.23,0,0,0-1.1-2.84,3.49,3.49,0,0,0-2.56-1.15,3.53,3.53,0,0,0-2.63,1.15,4.13,4.13,0,0,0-1.1,2.84,4.06,4.06,0,0,0,1.1,2.82,3.54,3.54,0,0,0,2.63,1.16,3.5,3.5,0,0,0,2.56-1.16A4.16,4.16,0,0,0,381.73,120.47Z" style="fill:#fff"></path><path d="M386.27,120.48a6,6,0,0,1,9.67-4.58.93.93,0,0,1,.18,1.31.94.94,0,0,1-1.31.15,4.19,4.19,0,0,0-2.56-.88,4,4,0,0,0-2.92,1.18,3.86,3.86,0,0,0,0,5.61,4,4,0,0,0,2.92,1.18,4.5,4.5,0,0,0,2.22-.61v-2.22h-2.32a.93.93,0,0,1-.92-.93.91.91,0,0,1,.92-.9h3.23a.91.91,0,0,1,.93.9v3.58a2.09,2.09,0,0,1,0,.28s0,0,0,.08v0a.77.77,0,0,1-.3.39,6,6,0,0,1-3.68,1.26A5.89,5.89,0,0,1,386.27,120.48Z" style="fill:#fff"></path><rect x="358.54" y="141.04" width="41.1" height="6.09" style="fill:#fff"></rect><rect x="363.47" y="188.03" width="31.25" height="6.09" style="fill:#fff"></rect><path d="M394.85,193.68H363.33l0-.51-2.16-50.12H397Zm-30.5-1.07h29.48l2.09-48.49H362.26Z" style="fill:#fff"></path><polygon points="365.38 143.59 364.26 144.71 363.5 145.47 361.85 147.12 361.79 145.67 362.75 144.71 363.5 143.95 363.87 143.59 365.38 143.59" style="fill:#fff"></polygon><polygon points="375.76 143.59 374.65 144.71 373.9 145.47 369.46 149.91 368.7 150.66 364.26 155.09 362.28 157.08 362.22 155.63 362.76 155.1 363.5 154.35 367.94 149.91 368.7 149.15 373.14 144.71 373.9 143.95 374.26 143.59 375.76 143.59" style="fill:#fff"></polygon><polygon points="386.16 143.59 379.09 150.65 374.65 155.1 373.9 155.86 369.46 160.29 363.5 166.24 362.71 167.03 362.65 165.59 362.75 165.49 368.7 159.53 373.14 155.1 373.9 154.35 378.33 149.91 379.09 149.15 383.52 144.71 384.64 143.59 386.16 143.59" style="fill:#fff"></polygon><polygon points="396.48 143.59 396.48 143.66 384.29 155.85 379.85 160.3 379.09 161.06 374.65 165.49 364.26 175.88 363.5 176.64 363.14 177 363.11 176.23 363.08 175.55 373.9 164.73 378.33 160.3 379.09 159.54 383.53 155.09 395.04 143.59 396.48 143.59" style="fill:#fff"></polygon><polygon points="396.07 152.94 396.01 154.52 395.43 155.1 394.67 155.85 390.23 160.29 389.48 161.05 385.04 165.49 384.28 166.24 379.84 170.68 379.09 171.44 374.65 175.88 373.9 176.64 369.46 181.08 368.7 181.82 364.26 186.26 363.57 186.96 363.5 185.51 363.5 185.5 367.94 181.08 379.09 169.93 383.52 165.49 384.28 164.73 388.72 160.29 389.48 159.53 393.92 155.09 394.67 154.35 396.07 152.94" style="fill:#fff"></polygon><polygon points="395.6 163.8 395.54 165.38 395.43 165.49 394.67 166.24 390.23 170.68 389.48 171.44 385.04 175.88 384.29 176.64 379.09 181.83 374.65 186.27 373.9 187.02 369.46 191.46 368.7 192.22 367.77 193.15 366.26 193.15 367.94 191.46 368.7 190.7 373.14 186.26 373.9 185.51 383.53 175.88 384.28 175.12 388.72 170.68 389.48 169.93 393.93 165.49 394.67 164.74 395.6 163.8" style="fill:#fff"></polygon><polygon points="395.14 174.65 395.1 175.55 395.07 176.23 394.67 176.64 390.23 181.08 389.48 181.82 379.84 191.46 379.09 192.22 378.17 193.15 376.65 193.15 378.33 191.46 379.09 190.71 388.73 181.08 389.48 180.32 393.92 175.88 394.67 175.12 395.14 174.65" style="fill:#fff"></polygon><polygon points="394.61 186.96 394.67 187.02 388.55 193.15 387.03 193.15 393.92 186.26 394.67 185.51 394.61 186.96" style="fill:#fff"></polygon><polygon points="396.39 145.67 396.33 147.11 394.67 145.47 393.92 144.71 392.79 143.59 394.31 143.59 394.67 143.95 395.43 144.71 396.39 145.67" style="fill:#fff"></polygon><polygon points="395.95 155.63 395.9 157.08 393.92 155.09 389.48 150.66 388.72 149.91 384.28 145.47 383.52 144.71 382.41 143.59 383.92 143.59 384.28 143.95 385.04 144.71 389.48 149.15 390.23 149.91 394.67 154.35 395.43 155.1 395.95 155.63" style="fill:#fff"></polygon><polygon points="395.53 165.59 395.46 167.03 394.67 166.24 393.93 165.49 389.48 161.05 388.72 160.29 384.29 155.85 383.53 155.09 379.09 150.65 378.33 149.91 372.02 143.59 373.53 143.59 379.09 149.15 379.84 149.91 384.28 154.35 385.04 155.1 389.48 159.53 390.23 160.29 394.67 164.74 395.43 165.49 395.53 165.59" style="fill:#fff"></polygon><polygon points="395.1 175.55 395.07 176.23 395.04 177 394.67 176.64 393.92 175.88 361.7 143.66 361.7 143.59 363.14 143.59 379.09 159.54 379.85 160.3 384.28 164.73 395.1 175.55" style="fill:#fff"></polygon><polygon points="394.67 185.51 394.61 186.96 393.92 186.26 389.48 181.82 383.53 175.88 379.09 171.44 378.33 170.68 373.9 166.24 373.14 165.49 368.7 161.05 367.94 160.29 363.5 155.85 362.17 154.52 362.11 152.94 363.5 154.35 364.26 155.09 368.7 159.53 369.46 160.29 373.9 164.73 374.65 165.49 379.09 169.93 379.84 170.68 394.67 185.51" style="fill:#fff"></polygon><polygon points="391.92 193.15 390.4 193.15 389.48 192.22 388.72 191.46 384.28 187.02 373.14 175.88 368.7 171.44 367.94 170.68 363.5 166.24 362.75 165.49 362.64 165.38 362.57 163.8 363.5 164.73 364.26 165.49 368.7 169.93 369.46 170.68 373.9 175.12 374.65 175.88 379.09 180.32 385.04 186.26 389.48 190.7 390.23 191.46 391.92 193.15" style="fill:#fff"></polygon><polygon points="381.53 193.15 380.01 193.15 379.09 192.22 368.7 181.82 367.94 181.08 363.5 176.64 363.11 176.23 363.08 175.55 363.03 174.65 363.5 175.12 364.26 175.88 368.7 180.32 369.46 181.08 373.9 185.51 374.65 186.27 379.09 190.71 379.84 191.46 381.53 193.15" style="fill:#fff"></polygon><polygon points="371.14 193.15 369.63 193.15 363.5 187.02 363.57 186.96 363.5 185.51 364.26 186.26 371.14 193.15" style="fill:#fff"></polygon></g><g id="freepik--Leash--inject-84"><path d="M208.9,256.39c12.39,11.1,32.58,14.52,48,8.38,9.26-4.36,15.55-13,20.49-21.74,6.66-12,11.09-25.06,14.84-38.21C306.5,151.57,311,96.2,314.92,41.33c1-13.76,1.63-27.55,2.42-41.33-.14,13.81-.52,27.61-1,41.41-2.83,58.88-8.66,151.53-36.76,202.87-6.08,10.39-14.64,21.1-27,23.94-15.26,3.13-32.51-.66-43.68-11.83Z" style="fill:#263238"></path></g><g id="freepik--Dog--inject-84"><path d="M374.77,326.86c0,.48,0,1-.07,1.43s-.05.87-.1,1.3a1.9,1.9,0,0,1,0,.25c0,.37-.08.74-.14,1.1s-.15,1-.25,1.44-.17.86-.27,1.28-.2.82-.31,1.21a.14.14,0,0,1,0,.07c-.11.41-.24.81-.36,1.2s-.26.76-.39,1.13a31.28,31.28,0,0,1-2.08,4.49c-.16.29-.34.59-.51.88-.53.84-1.08,1.65-1.66,2.42-.13.2-.28.37-.41.56a33.37,33.37,0,0,1-3.78,4.06l-.7.62a29.46,29.46,0,0,1-2.59,2l-.7.49c-.61.41-1.23.78-1.84,1.13-.27.16-.56.32-.84.46-.57.31-1.13.59-1.69.83l-.66.3-.17.07c-4.47-6.87-13.74-7.24-12.38-1,.71,3.26,6.17,3.59,12.38,1l.26.43a4.64,4.64,0,0,1,.26.44c.16.3.32.6.46.93a2.67,2.67,0,0,1,.2.46,14.86,14.86,0,0,1,.75,2.42,6.38,6.38,0,0,1,.15.76s0,.07,0,.1q.09.58.15,1.23c0,.08,0,.17,0,.25,0,.28,0,.55,0,.83s0,.56,0,.85c-.08,3.55-1.18,7.73-3.77,12.59-13.33,24.93-40.53,30.2-40.53,30.2s43.36-96.22-57-186.78c0,0,54.94-7.84,77.5,23.68,8,11.12,10.59,21.58,10.39,30.23,0,.43,0,.85-.06,1.28s0,.9-.1,1.33-.08.77-.12,1.15-.1.79-.17,1.19-.12.78-.2,1.17a33.42,33.42,0,0,1-.8,3.31c-.1.35-.2.7-.31,1-.23.68-.47,1.33-.72,2-.34.81-.68,1.58-1,2.3H340l-.6,0c-.32,0-.63,0-.95.07a20.45,20.45,0,0,0-2.31.31l-.54.1-.64.15c-.31.08-.6.15-.87.24a15,15,0,0,0-1.77.66l-.39.19a6.72,6.72,0,0,0-2.08,1.55,2.35,2.35,0,0,0-.19.25,3.08,3.08,0,0,0-.44.84,2.17,2.17,0,0,0-.07.24,2.93,2.93,0,0,0,.51,2.34,2.6,2.6,0,0,0,2.19,1.24l.48,0,.46-.08a3,3,0,0,0,.37-.11,2.71,2.71,0,0,0,.46-.18,2.81,2.81,0,0,0,.47-.22,4.08,4.08,0,0,0,.49-.28,12.59,12.59,0,0,0,2.78-2.44,5.39,5.39,0,0,0,.39-.43L338,293c.38-.48.74-1,1.11-1.55s.55-.86.8-1.32a9.1,9.1,0,0,0,.44-.81,2.64,2.64,0,0,0,.2-.37A32.76,32.76,0,0,1,367.09,302c.64.86,1.25,1.77,1.83,2.72a41.5,41.5,0,0,1,5.17,14.08A38.79,38.79,0,0,1,374.77,326.86Z" style="fill:#855CD3"></path><path d="M374.77,326.86c0,.48,0,1-.07,1.43s-.05.87-.1,1.3a1.9,1.9,0,0,1,0,.25c0,.37-.08.74-.14,1.1s-.15,1-.25,1.44-.17.86-.27,1.28-.2.82-.31,1.21a.14.14,0,0,1,0,.07c-.11.41-.24.81-.36,1.2s-.26.76-.39,1.13a31.28,31.28,0,0,1-2.08,4.49c-.16.29-.34.59-.51.88-.53.84-1.08,1.65-1.66,2.42-.13.2-.28.37-.41.56a33.37,33.37,0,0,1-3.78,4.06l-.7.62a29.46,29.46,0,0,1-2.59,2l-.7.49c-.61.41-1.23.78-1.84,1.13-.27.16-.56.32-.84.46-.57.31-1.13.59-1.69.83l-.66.3-.17.07c-4.47-6.87-13.74-7.24-12.38-1,.71,3.26,6.17,3.59,12.38,1l.26.43a4.64,4.64,0,0,1,.26.44c.16.3.32.6.46.93a2.67,2.67,0,0,1,.2.46,14.86,14.86,0,0,1,.75,2.42,6.38,6.38,0,0,1,.15.76s0,.07,0,.1q.09.58.15,1.23c0,.08,0,.17,0,.25,0,.28,0,.55,0,.83s0,.56,0,.85c-.08,3.55-1.18,7.73-3.77,12.59-13.33,24.93-40.53,30.2-40.53,30.2s43.36-96.22-57-186.78c0,0,54.94-7.84,77.5,23.68,8,11.12,10.59,21.58,10.39,30.23,0,.43,0,.85-.06,1.28s0,.9-.1,1.33-.08.77-.12,1.15-.1.79-.17,1.19-.12.78-.2,1.17a33.42,33.42,0,0,1-.8,3.31c-.1.35-.2.7-.31,1-.23.68-.47,1.33-.72,2-.34.81-.68,1.58-1,2.3H340l-.6,0c-.32,0-.63,0-.95.07a20.45,20.45,0,0,0-2.31.31l-.54.1-.64.15c-.31.08-.6.15-.87.24a15,15,0,0,0-1.77.66l-.39.19a6.72,6.72,0,0,0-2.08,1.55,2.35,2.35,0,0,0-.19.25,3.08,3.08,0,0,0-.44.84,2.17,2.17,0,0,0-.07.24,2.93,2.93,0,0,0,.51,2.34,2.6,2.6,0,0,0,2.19,1.24l.48,0,.46-.08a3,3,0,0,0,.37-.11,2.71,2.71,0,0,0,.46-.18,2.81,2.81,0,0,0,.47-.22,4.08,4.08,0,0,0,.49-.28,12.59,12.59,0,0,0,2.78-2.44,5.39,5.39,0,0,0,.39-.43L338,293c.38-.48.74-1,1.11-1.55s.55-.86.8-1.32a9.1,9.1,0,0,0,.44-.81,2.64,2.64,0,0,0,.2-.37A32.76,32.76,0,0,1,367.09,302c.64.86,1.25,1.77,1.83,2.72a41.5,41.5,0,0,1,5.17,14.08A38.79,38.79,0,0,1,374.77,326.86Z" style="opacity:0.1"></path><path d="M235.28,327.84c-48,14.83-71.62,39.71-63.25,67.49s58.17,42.25,58.61,44S226.45,452,226,452.47s-6,4.47-6.92,5.56-2.59,6.23-1.9,6.92,28.45,0,35,0c4.44,0,22.43-27.45,20.76-31.47-1.26-3-4.77-6.36-4.77-6.36s20-10.75,31.91-22.75C310.15,394.21,282.49,313.23,235.28,327.84Z" style="fill:#855CD3"></path><path d="M235.28,327.84c-48,14.83-71.62,39.71-63.25,67.49s58.17,42.25,58.61,44S226.45,452,226,452.47s-6,4.47-6.92,5.56-2.59,6.23-1.9,6.92,28.45,0,35,0c4.44,0,22.43-27.45,20.76-31.47-1.26-3-4.77-6.36-4.77-6.36s20-10.75,31.91-22.75C310.15,394.21,282.49,313.23,235.28,327.84Z" style="opacity:0.1"></path><path d="M259.6,419.2a9.66,9.66,0,0,1,5.77,6.55c-1.91-2.28-3.81-4.28-5.77-6.55Z" style="fill:#263238"></path><path d="M272.94,433.48c-4.91-5.34-10.58-9.33-16.74-13.22,7.08,1.08,14.25,6.43,16.74,13.22Z" style="fill:#263238"></path><path d="M233.3,455.42c-3.17,2-6.61,6-5.29,10,.22-4,3.09-6.86,5.29-10Z" style="fill:#263238"></path><path d="M227.06,455.05c-3.17,2-6.61,6-5.29,10,.21-4,3.08-6.86,5.29-10Z" style="fill:#263238"></path><path d="M99.88,346c-1.27,6.24,8.76,51.77,17.91,72.71,5.77,13.18,9.48,23.68,9,24.46-1.17,2-14.14,13.43-15.56,14.89-.86.9-3,6.68-1.17,6.68s50.2.19,53.88.19,5.67-74.15,6.67-88S107.91,306.69,99.88,346Z" style="fill:#855CD3"></path><path d="M99.88,346c-1.27,6.24,8.76,51.77,17.91,72.71,5.77,13.18,9.48,23.68,9,24.46-1.17,2-14.14,13.43-15.56,14.89-.86.9-3,6.68-1.17,6.68s50.2.19,53.88.19,5.67-74.15,6.67-88S107.91,306.69,99.88,346Z" style="opacity:0.1"></path><path d="M127.06,455.42c-3.16,2-6.6,6-5.29,10,.22-4,3.09-6.86,5.29-10Z" style="fill:#263238"></path><path d="M120.82,455.05c-3.17,2-6.61,6-5.29,10,.22-4,3.09-6.86,5.29-10Z" style="fill:#263238"></path><path d="M168.68,418.76c-.27-14.59.24-29.21,1-43.77a10.39,10.39,0,0,0-.18-2.1c-1.73-9-4.23-17.9-6.19-26.87,2.11,5.78,4.06,11.62,5.76,17.54,1,3.73,2.38,7.58,2.54,11.49-.56,14.58-1.35,29.2-2.91,43.71Z" style="fill:#263238"></path><path d="M167.6,348.92a23.45,23.45,0,0,1,0,12.22,84.48,84.48,0,0,1,0-12.22Z" style="fill:#263238"></path><path d="M317.58,404.37c-10.38,12.37-94.72,31.12-122.16,21.74s-81.66-45.85-93-68.93c-5-10.08-2.46-27.72,1.73-45.34a12.94,12.94,0,0,1-3.87,3.39c3-3.88,4.31-10,4.39-10.36-1.72,2-6.8,4.17-7.07,4.29.19-.27,3.34-4.56,6.1-9s7.61-15.66,9.09-20.69c0-.09.06-.19.08-.27a1.42,1.42,0,0,0,0-.16h0v0c2.42-9.05,4-16.11,3.21-19.27,0,0-34.22-4.54-50.73-30S57.64,171,60.76,166.74s44.41,5.13,46.64,3.79,18.3-28.1,30.35-28.78,59.79,18.08,66,31.46,7.09,86.22,7.09,86.22c4,6.71,29.27,27.93,45.32,37.52,9.88,5.9,45.13,22.72,54.88,36.72C327.85,357.74,328,392,317.58,404.37Z" style="fill:#855CD3"></path><path d="M107.93,346c-1.27,6.24,13.21,51.77,22.36,72.71,5.77,13.18,10.43,23.68,10,24.46-1.17,2-14.14,13.43-15.56,14.89-.86.9-3,6.68-1.17,6.68s50.2.19,53.88.19,5.67-74.15,6.67-88S116,306.69,107.93,346Z" style="fill:#855CD3"></path><path d="M140.51,455.42c-3.16,2-6.6,6-5.29,10,.22-4,3.09-6.86,5.29-10Z" style="fill:#263238"></path><path d="M134.27,455.05c-3.17,2-6.61,6-5.29,10,.22-4,3.09-6.86,5.29-10Z" style="fill:#263238"></path><path d="M182.13,418.76c-.27-14.59.24-29.21,1-43.77a9.71,9.71,0,0,0-.18-2.1c-1.73-9-4.23-17.9-6.19-26.87,2.11,5.78,4.06,11.62,5.76,17.54,1,3.73,2.38,7.58,2.54,11.49-.56,14.58-1.35,29.2-2.91,43.71Z" style="fill:#263238"></path><path d="M181.05,348.92a23.45,23.45,0,0,1,0,12.22,84.48,84.48,0,0,1,0-12.22Z" style="fill:#263238"></path><path d="M114.37,374.16a151.65,151.65,0,0,1-7.22-22.22c-1-6-.5-12.2-.06-18.28,1,5.93.94,12,2,17.86,1.89,7.51,4.07,15,5.31,22.64Z" style="fill:#263238"></path><path d="M104.63,337.23c1.18,3.55,1.72,7,3,10.56-2.47-2.83-3.17-6.91-3-10.56Z" style="fill:#263238"></path><path d="M252.78,327.84c-48,14.83-71.62,39.71-63.25,67.49s58.16,42.25,58.61,44-4.2,12.59-4.62,13.1-6,4.47-6.92,5.56-2.58,6.23-1.89,6.92,28.45,0,35,0c4.44,0,22.43-27.45,20.75-31.47-1.25-3-4.77-6.36-4.77-6.36s20-10.75,31.92-22.75C327.65,394.21,300,313.23,252.78,327.84Z" style="fill:#855CD3"></path><path d="M248.14,439.37c-19.93-6.92-42.4-16.87-55.57-34.05A30.86,30.86,0,0,1,187,392.49l-.36-2.77-.18-2.79c-.45-33,35.36-49.15,61.7-59.1-25.67,11.34-62.45,28.44-59.58,61.71,1.46,24.11,39.68,41.9,59.58,49.83Z" style="fill:#263238"></path><path d="M230.67,335.46a18.35,18.35,0,0,1,8.31-6.82,64.53,64.53,0,0,1-8.31,6.82Z" style="fill:#263238"></path><path d="M277.1,419.2a9.68,9.68,0,0,1,5.77,6.55c-1.91-2.28-3.81-4.28-5.77-6.55Z" style="fill:#263238"></path><path d="M290.43,433.48c-4.91-5.34-10.58-9.33-16.73-13.22,7.08,1.08,14.25,6.43,16.73,13.22Z" style="fill:#263238"></path><path d="M250.8,455.42c-3.17,2-6.61,6-5.29,10,.22-4,3.09-6.86,5.29-10Z" style="fill:#263238"></path><path d="M244.55,455.05c-3.16,2-6.6,6-5.29,10,.22-4,3.09-6.86,5.29-10Z" style="fill:#263238"></path><path d="M291,352.89c-9.32,9.61-3.43,37.22,8.59,36.38,9.84-.69,15.77-11.56,17-18.85s-1.19-17.24-8.29-20.33C302.23,347.47,294.37,349.37,291,352.89Z" style="opacity:0.1"></path><path d="M294.12,331.05c-2.92,2.19-.89,8.89,2.7,10.14s7.35-3.05,6.73-5.87S296.76,329.07,294.12,331.05Z" style="opacity:0.1"></path><path d="M279.45,344.4c-4.6,2.07-8.15,13.53-5.73,17.19s9.56-1.34,11.28-6S283.61,342.53,279.45,344.4Z" style="opacity:0.1"></path><path d="M177.75,154.42s-23.72,73-9,90,45.51,6.47,53.32-6.92-5.74-60-17.12-72.07C195.66,155.56,177.75,154.42,177.75,154.42Z" style="fill:#855CD3"></path><path d="M177.75,154.42s-23.72,73-9,90,45.51,6.47,53.32-6.92-5.74-60-17.12-72.07C195.66,155.56,177.75,154.42,177.75,154.42Z" style="opacity:0.4"></path><path d="M53.26,164.15c-1.72,2.58,3.53,16.21,8.7,18.21s17.84-10.62,17.51-14.93S55.46,160.86,53.26,164.15Z" style="fill:#263238"></path><path d="M62,173.24c1.48,7.91,3.61,33.24,12.23,33.59,7.51.06,14.78-7.31,20.5-12.93-5.37,6.52-12.76,14.48-20.9,14.52-10.26-.54-11.41-26.06-11.83-35.18Z" style="fill:#263238"></path><path d="M59.46,193.54c.89,2.56,1.52,5.87,3.07,7.93-.19-.08-.33.09-.3,0,.9-7.92-.45-16,0-24A97.44,97.44,0,0,1,64,194.41c-.08,2.58.25,5.25-.79,7.71-2.55,2.73-3.62-7.15-3.79-8.58Z" style="fill:#263238"></path><path d="M125.7,165.78c14.36-8.19,27.86-1.28,35.2,11.6,5.95,10.43,3.49,25.93-10.29,33.79s-29.44.2-35-9.59S110.1,174.67,125.7,165.78Z" style="opacity:0.1"></path><path d="M125.23,169.08c8.56-1.41,14,4.46,15.22,12.14A13,13,0,0,1,129.21,196c-8.22,1.35-14.54-5.28-15.5-11.12A13.7,13.7,0,0,1,125.23,169.08Z" style="fill:#263238"></path><path d="M124.67,170.83c8-1.33,13.12,4.19,14.3,11.41a12.24,12.24,0,0,1-10.56,13.87c-7.73,1.27-13.66-5-14.56-10.45A12.85,12.85,0,0,1,124.67,170.83Z" style="fill:#fff"></path><path d="M122.51,171.46c6.57-1.08,10.71,3.42,11.68,9.31a10,10,0,0,1-8.62,11.33c-6.31,1-11.16-4-11.89-8.53A10.5,10.5,0,0,1,122.51,171.46Z" style="fill:#263238"></path><path d="M116.1,259.78c20.08,4.47,65.19,2.25,94.62-8.69,0,0,1.6,5.39,1.85,6.39s.59,3.64.59,3.64A104.57,104.57,0,0,1,162,276.68c-29.62.84-48.4-3.38-48.4-3.38a60.36,60.36,0,0,1,.92-8.2C115.06,263.09,116.1,259.78,116.1,259.78Z" style="fill:#455a64"></path></g><g id="freepik--Poop--inject-84"><path d="M304.5,454.12s-6.44,1.7-6.44,7.29,2.56,9,28.1,9c23.69,0,28.65-2.56,28.65-7.06s-1.55-7.77-7.14-9.24c0,0,2.33-9.94-8.77-12.43,0,0-1.09-9.24-10.72-10.87,0,0,1.94,3.81-1.74,4.74s-13.55-.08-12.39,7.3C314.05,442.86,303.18,442.55,304.5,454.12Z" style="fill:#855CD3"></path><path d="M304.5,454.12s-6.44,1.7-6.44,7.29,2.56,9,28.1,9c23.69,0,28.65-2.56,28.65-7.06s-1.55-7.77-7.14-9.24c0,0,2.33-9.94-8.77-12.43,0,0-1.09-9.24-10.72-10.87,0,0,1.94,3.81-1.74,4.74s-13.55-.08-12.39,7.3C314.05,442.86,303.18,442.55,304.5,454.12Z" style="opacity:0.5"></path><path d="M334,457.79a97.61,97.61,0,0,1,13.66-3.67A21,21,0,0,1,334,457.79Z" style="fill:#263238"></path><path d="M304.5,454.12c8.41,3,17.34,3.52,26.19,4-8.23,1.57-19.09.73-26.19-4Z" style="fill:#263238"></path><path d="M323.21,444.65c5.28-.89,10.73-.75,15.69-3-3.56,3.89-10.87,4.15-15.69,3Z" style="fill:#263238"></path><path d="M314.05,442.86a38.9,38.9,0,0,1,6.58,1.57,9.91,9.91,0,0,1-6.58-1.57Z" style="fill:#263238"></path><path d="M345.24,442.36c-1.18-1-2.66-2-3.29-3.45a5,5,0,0,1,.83-4.69l1.63-2.68a3.65,3.65,0,0,0,.61-2.74,6.4,6.4,0,0,0-1.44-2.61,3.88,3.88,0,0,1-.47-3.2,8.82,8.82,0,0,1,1.89-2.56,14.48,14.48,0,0,0-1.51,2.67,3.42,3.42,0,0,0,.58,2.78,6.42,6.42,0,0,1,1.63,2.79,4.38,4.38,0,0,1-.68,3.24l-1.65,2.67a5,5,0,0,0-1.09,2.71c-.24,2.17,1.72,3.55,3,5.07Z" style="fill:#263238"></path><path d="M310.78,418.64c1.18,1,2.67,2,3.3,3.45a5,5,0,0,1-.83,4.69l-1.63,2.68a3.7,3.7,0,0,0-.62,2.74,6.55,6.55,0,0,0,1.45,2.61,3.88,3.88,0,0,1,.47,3.2,8.67,8.67,0,0,1-1.9,2.56,14.28,14.28,0,0,0,1.52-2.67,3.45,3.45,0,0,0-.58-2.79,6.33,6.33,0,0,1-1.63-2.78,4.38,4.38,0,0,1,.68-3.24l1.65-2.67a5,5,0,0,0,1.09-2.71c.24-2.17-1.72-3.55-3-5.07Z" style="fill:#263238"></path><path d="M346.48,426c1.18,1,2.67,2,3.3,3.45a5,5,0,0,1-.84,4.69l-1.62,2.68a3.7,3.7,0,0,0-.62,2.74,6.65,6.65,0,0,0,1.44,2.61,3.85,3.85,0,0,1,.48,3.2,8.67,8.67,0,0,1-1.9,2.56,13.69,13.69,0,0,0,1.51-2.67,3.38,3.38,0,0,0-.57-2.78,6.42,6.42,0,0,1-1.63-2.79,4.38,4.38,0,0,1,.68-3.24l1.65-2.67a4.9,4.9,0,0,0,1.08-2.71c.25-2.17-1.71-3.55-3-5.07Z" style="fill:#263238"></path><path d="M306.09,431.7c1.77,1.41,4,3,3.56,5.58a4.74,4.74,0,0,1-.87,2.21c-.64,1.09-1.75,2.71-2.33,3.78a4.06,4.06,0,0,0,.55,4.08,4.08,4.08,0,0,1-.55-5.34c.35-.61,1.34-2.27,1.72-2.9a4.22,4.22,0,0,0,.82-1.91,4.53,4.53,0,0,0-.16-2.07,17.72,17.72,0,0,0-2.74-3.43Z" style="fill:#263238"></path><path d="M330.51,425.75c-1.77-1.42-4-3-3.56-5.59a4.71,4.71,0,0,1,.87-2.2c.64-1.09,1.75-2.72,2.33-3.79a4.06,4.06,0,0,0-.55-4.08,4.09,4.09,0,0,1,.55,5.34c-.35.62-1.34,2.27-1.72,2.9a4.27,4.27,0,0,0-.82,1.91,4.57,4.57,0,0,0,.16,2.08,17.64,17.64,0,0,0,2.74,3.43Z" style="fill:#263238"></path></g></svg>
