<svg xmlns="http://www.w3.org/2000/svg" xmlns:xlink="http://www.w3.org/1999/xlink" viewBox="0 0 500 500"><defs><clipPath id="freepik--clip-path--inject-72"><path d="M271.45,189.46c19.63,19.51,42.42,43.12,49.61,51s8.84,45.75,21.78,70.41a492.18,492.18,0,0,1,29.08,66.55l21.76-11.11s-22.07-63.22-27.89-104.43c-3.6-25.48-11.73-25.21-17.68-41.49-23.93-65.55-51-93.94-51-93.94" style="fill:#fff;stroke:#263238;stroke-linecap:round;stroke-linejoin:round"></path></clipPath><clipPath id="freepik--clip-path-2--inject-72"><path d="M364.29,366.24s15.3-7.39,20.73-6.42c0,0,6.34-3.41,9-2.75,0,0,1.92,11.27,12.08,16.66s26.84,1.79,34.75,3,7.18,6.45,7.18,6.45-27.76,23.36-68.13,35c0,0-7.45-14.55-10-37.56Z" style="fill:#855CD3;stroke:#263238;stroke-linecap:round;stroke-linejoin:round"></path></clipPath><clipPath id="freepik--clip-path-3--inject-72"><path d="M301.16,138.61s2.29,39.17-21.86,104.65c-6,16.26.38,21.31-13.36,43.08C243.73,321.52,219.66,384,219.66,384l-23.78-5.61a491.88,491.88,0,0,0,20.87-69.56c6.08-27.17,29.31-57.12,28.94-67.79s-2.47-43.43-4.83-71" style="fill:#fff;stroke:#263238;stroke-linecap:round;stroke-linejoin:round"></path></clipPath><clipPath id="freepik--clip-path-4--inject-72"><path d="M229,102.23s-18.34,26.27,7.77,74.27c0,0-6.18,5.07-.38,7.49,0,0-1.82,10.95,3.63,11.75s54-.34,61.2-9.42c2.17-2.73-.12-7.85-.12-7.85,13.35-52,7.67-72.69,7.67-72.69Z" style="fill:#263238;stroke:#263238;stroke-miterlimit:10"></path></clipPath><clipPath id="freepik--clip-path-5--inject-72"><path d="M381,149.82c0,.19-.09.37-.14.55a.29.29,0,0,0,0,.09c-.1.38-.2.73-.3,1.06a16,16,0,0,1-.58,1.63c-.05.13-.1.26-.16.38s-.12.27-.19.4a5.71,5.71,0,0,1-2.56,2.92l-.13.05s0,0,0,0l-.1,0a1.5,1.5,0,0,1-.49.09c-1.69,1.29-4,3.6-6,2.15a65.82,65.82,0,0,1-6.53,2.87,23.46,23.46,0,0,1-5.14,1.08c-.63,0-2.1-.53-3.38-3.51h0a.67.67,0,0,0,0-.12,13.55,13.55,0,0,1-.59-1.65c-.81-2.47-2-7.1-1.19-11.24-.35-.44-.72-.88-1.12-1.34-5.93-6.78-3-18-7.38-23.79-3-4-25.33-29.92-39.86-47.56,1.91.07,3.81.16,5.68.28a213.33,213.33,0,0,1,27.64,3.45c14.14,33.86,21.51,34.68,25.79,43.83C369.67,133.37,381.74,146.53,381,149.82Z" style="fill:#fff"></path></clipPath><clipPath id="freepik--clip-path-6--inject-72"><path d="M196.63,349.71c-.9,5.42-3.25,29.25-11.37,35.38-4.6,3.47-3.8,15.53-12.52,30.69-3,5.19,6.56,11.8,10.89,12.94h10.83s2.52-7.87-9.22-9.49c-2.65-.37,5.72-14.12,7.87-15.63,8-5.69,14.89-17.87,14.89-17.87s28.16-13.27,31.95-20.31Z" style="fill:#757575;stroke:#263238;stroke-linecap:round;stroke-linejoin:round"></path></clipPath><clipPath id="freepik--clip-path-7--inject-72"><path d="M123.52,336.12s20,26.66,14.08,35.45c-7.31,10.85,3.25,11.72,4.33,38.25.22,5.34,3.84,8.21,6.4,12.08,2.71,4.11,2.06,6.82,4.25,6.82h13.18c3-4.27.45-7.79-7.58-13.48-4.08-2.88-1.63-33.59-2.71-36.83s28.7-21.22,26-42.29Z" style="fill:#757575;stroke:#263238;stroke-linecap:round;stroke-linejoin:round"></path></clipPath><clipPath id="freepik--clip-path-8--inject-72"><path d="M122.78,277.31c13.54-8.76,93.89,10.66,99.3,7.95s13.54.49,13.54.49,8.12-5.36,10.29-5.36,10-2.26,10-2.26,16,36.38,27.9,46.13c0,0-15.16,41.12-22.2,44.95,0,0,7.52,38,16.72,43.38s11.6,7.52,18.1,7,10.29,6.5,4.33,8.13l-25.5,1c-3.79-1.08-3.68-5.9-8.55-7s-8.35-11.37-10.52-13.54-20.1-23.15-24.44-36.63c0,0-13.47,3.05-40-17-14.29-10.81-50.9-9-50.9-9s-20.58,24.78-35.2,32.73-13.77,32.12-13.77,32.12V421.2s12.2,2.05,10.58,7.52H79.65s-6-3.73-3.25-17.27-.87-29.77-.71-33.2S89.4,371,90.48,359.11s.83-50.45,14.37-61.82c0,0-13.48-17.27-2.65-36.77s39.53-8.51,34.12,3.87c0,0-4.88-4.8-13,0S122.78,277.31,122.78,277.31Z" style="fill:#757575;stroke:#263238;stroke-linecap:round;stroke-linejoin:round"></path></clipPath><clipPath id="freepik--clip-path-9--inject-72"><path d="M245.91,274c-4.06,4-.25,20.77,14.47,26.37,0,0,18.2,23.13,23.44,23.92,10.83,1.62,26.54-8.13,26.54-10.83S321.81,300,321.81,300s9.13-6.1,4.25-12.6,2.06-14.38-2.42-15.2c0,0-8.54-4.57-10.94-11.11-.15-.43-1.8.32-1.8.32s.54-2.35-1.68-2.54c0,0,.37-2.52-1.64-2.11a12.82,12.82,0,0,0-7-7.06c-5.19-2.32-21.13-2.31-28.17,3.61S248.07,271.85,245.91,274Z" style="fill:#757575;stroke:#263238;stroke-linecap:round;stroke-linejoin:round"></path></clipPath><clipPath id="freepik--clip-path-10--inject-72"><path d="M326.06,287.43c-4.87-6.49,2.05-14.38-2.42-15.2l-.18-.1a4,4,0,0,0,.3-2.71c-.42-1.3-3.19,2.5-4.46-2.43-.74-2.85-4.55-4.18-6-4.59a12.26,12.26,0,0,1-.56-1.29c-.15-.42-1.79.32-1.79.32-1.88,1.7-3.1,5.2-3.67,7.2-.07-2.37-.91-4.07-2.3-4l-.44-1.22c3.87-2.55.75-7.51-.75-9.18,0,0-2.82-1.09-6.38,2.57s-3,14.36-5.42,16c0,0,8.89,1.63,6.74,6s-7.29,11.92-2.68,15.72.77,7.58,2.68,11.91c1.52,3.43,2.71,10,1.58,13.43a4,4,0,0,1-1.56,1.75c6.46-2.71,11.65-6.59,11.65-8.15,0-2.71,11.44-13.39,11.44-13.39S330.93,293.93,326.06,287.43Z" style="fill:#855CD3;stroke:#263238;stroke-linecap:round;stroke-linejoin:round"></path></clipPath></defs><g id="freepik--background-simple--inject-72"><path d="M67.93,167.09s-27.88,72,11.3,144.5S199.11,422.39,263.7,455.14s131.66,16.8,163.53-36.84-11.84-91.93-11.9-168.42,11.45-96.74-30-161.36-143.06-78.93-219.9-31S67.93,167.09,67.93,167.09Z" style="fill:#fff;opacity:0.7000000000000001"></path><path d="M433.11,428.72H94.71s-75.06-44.12-46-185.31c15-72.95,90.47-142.09,184-162.47l2.12-.46c28-5.88,53.37-7.64,75.89-6.27,53.36,3.23,90.94,24,111.55,49.19,29.31,35.79-20.34,113.07,1.51,152.76S513.21,374.26,433.11,428.72Z" style="fill:#855CD3"></path><path d="M433.11,428.72H94.71s-75.06-44.12-46-185.31c15-72.95,90.47-142.09,184-162.47l2.12-.46c28-5.88,53.37-7.64,75.89-6.27,53.36,3.23,90.94,24,111.55,49.19,29.31,35.79-20.34,113.07,1.51,152.76S513.21,374.26,433.11,428.72Z" style="fill:#fff;opacity:0.7000000000000001"></path></g><g id="freepik--Park--inject-72"><path d="M152.18,219.43a27.52,27.52,0,0,1,3.36-54.36" style="fill:none;stroke:#263238;stroke-linecap:round;stroke-linejoin:round"></path><path d="M157.82,165a27.52,27.52,0,1,1,0,55" style="fill:none;stroke:#263238;stroke-linecap:round;stroke-linejoin:round"></path><path d="M166.2,203.49c-6.51,1.5-18.12,1.41-20.45.37-3.21-1.43,3.38-7,3.38-7s-2.8-3,2.56-7.85Z" style="fill:none;stroke:#263238;stroke-linecap:round;stroke-linejoin:round"></path><path d="M170.62,201.13a1.75,1.75,0,0,1-.66.89L153.34,185.4a7,7,0,0,1,1.84-1.12,2.93,2.93,0,0,0,1.68-3.92s6.33,1.49,4.19,6.08c0,0,7.12,3.53,5.7,7.09C166.75,193.53,171.65,197.34,170.62,201.13Z" style="fill:none;stroke:#263238;stroke-linecap:round;stroke-linejoin:round"></path><path d="M149.13,196.83a14,14,0,0,0,11,.59" style="fill:none;stroke:#263238;stroke-linecap:round;stroke-linejoin:round"></path><path d="M164.17,195.05l-.66.52" style="fill:none;stroke:#263238;stroke-linecap:round;stroke-linejoin:round"></path><path d="M158.83,187.93a4.36,4.36,0,0,1-2.31.65" style="fill:none;stroke:#263238;stroke-linecap:round;stroke-linejoin:round"></path><path d="M147,184.23l26,26a23.29,23.29,0,0,1-32.84-32.84" style="fill:none;stroke:#263238;stroke-linecap:round;stroke-linejoin:round"></path><line x1="142.4" y1="179.68" x2="144.87" y2="182.16" style="fill:none;stroke:#263238;stroke-linecap:round;stroke-linejoin:round"></line><path d="M181.11,192.49A23.13,23.13,0,0,1,177.46,205" style="fill:none;stroke:#263238;stroke-linecap:round;stroke-linejoin:round"></path><path d="M175.54,207.6l-32.83-32.83A23.29,23.29,0,0,1,181,190" style="fill:none;stroke:#263238;stroke-linecap:round;stroke-linejoin:round"></path><path d="M149.29,400.37v5.8" style="fill:none;stroke:#263238;stroke-linecap:round;stroke-linejoin:round"></path><path d="M149.29,221.69C149,277,149,331,149.29,385.89" style="fill:none;stroke:#263238;stroke-linecap:round;stroke-linejoin:round"></path><path d="M166.2,368.79q.06,13.43.16,26.85" style="fill:none;stroke:#263238;stroke-linecap:round;stroke-linejoin:round"></path><path d="M166.36,237.77q-.54,60.35-.2,120" style="fill:none;stroke:#263238;stroke-linecap:round;stroke-linejoin:round"></path><path d="M166.36,221.69v4.55" style="fill:none;stroke:#263238;stroke-linecap:round;stroke-linejoin:round"></path><path d="M304.26,391.61a35.52,35.52,0,0,0-6,4" style="fill:none;stroke:#263238;stroke-linecap:round;stroke-linejoin:round"></path><path d="M321.65,385.79a71.8,71.8,0,0,0-10.31,2.73" style="fill:none;stroke:#263238;stroke-linecap:round;stroke-linejoin:round"></path><path d="M462.62,361.66C467,357,477,351,474,343c-7-3-13,1-17.71,5.68,1.39-4.25,2.28-1.66,0,0C461,339,464,329,462,318c-2-6-10-6-13.94-1.88a13.91,13.91,0,0,1,2.06-4.26,8.63,8.63,0,0,1-2.06,4.26C450,308,456,300,453,291c0-2,1-5-2-4-9,3-9,15-10.35,24.28a61.49,61.49,0,0,1,.59-7,30.87,30.87,0,0,1-.59,7c.89-13.87,2.1-28.78-2.22-42.24-1.14-3.53-5.05-11-9.19-6.18-3.86,4.45-4.15,12.16-4.49,17.7-.5,8.19-.78,16.4-.54,24.6-1.1-7.26-3.6-18.47-11.92-20.66-7.14-1.89-9.1,7.1-9.76,12.3a72,72,0,0,0-.17,15.18,10.91,10.91,0,0,0-11.91,3.21c-3.65,4.67-1.05,11.75,1.17,16.48-5.52-5.06-17-14.21-24.84-8.85C355,334,358,354,358.57,369.16c-3.16-1.84-.45-4,0,0-3.31-2.29-15.05-9.08-17.29-3.41s0,13.13,1.73,18.75c-9.13-.53-1.68-2.64,0,0a88.83,88.83,0,0,0-13.84.23" style="fill:none;stroke:#263238;stroke-linecap:round;stroke-linejoin:round"></path><path d="M303.33,335.51q.93,2.34,1.67,4.76c4.17-3.41,9.51-6.52,15-6.91-1.72-3.23-7.07-13.95-2.64-16.82,3.36-2.18,7.83,6.27,9.09,8.52-.38-6.68-.57-14,1.33-20.49C328,301,333,298,336,301c5,5,4,13,5.56,19.37,2.4-3-.23-3.45,0,0a35.47,35.47,0,0,1,8.47-8.16c6.61-4.13,8.52,2.34,8.54,8.16" style="fill:none;stroke:#263238;stroke-linecap:round;stroke-linejoin:round"></path><path d="M297.75,324.2c.69,1.19,1.37,2.39,2,3.6" style="fill:none;stroke:#263238;stroke-linecap:round;stroke-linejoin:round"></path><path d="M193.21,256.14C190,243,188,230,189,216h3c7,9,6,21,8.64,30.55a11.24,11.24,0,0,0-.26-3.89,11.62,11.62,0,0,0,.26,3.89C201,235,201,223,204,212c1-4,5-13,11-9,6,15,4,31,2.28,46,.48-1.73,1.27-3.82,1.15-5.62a16.29,16.29,0,0,0-1.15,5.62C220,239,223,223,235,221c4,10-1,21-3.81,30.65.38-.27,2.86-5.75,0,0,.38-.27,3.87-2.79,2.85-3.21s-2.64,2.58-2.85,3.21c5.74-4.89,12.88-9.7,20.62-10.3C256,241,260,242,262,245c5,10-5,19-8,28v3c15,12,29,25,39.29,41.14" style="fill:none;stroke:#263238;stroke-linecap:round;stroke-linejoin:round"></path><path d="M39.64,350.56c-1.94-3.52-3.22-7.38-1.9-10.29,3.16-7,15.42,9.77,15.42,9.77s-8.7-36.1-3.16-41.28,12.26,28.86,12.26,28.86-.8-39.15,17.8-33.83,13.06,44.1,13.06,44.1,9.26-10.68,15.11-6.33-6,40-6,40,7.12-9.13,11.08-5.77,0,14,0,14,15.16,1.74,21.22,5.82" style="fill:none;stroke:#263238;stroke-linecap:round;stroke-linejoin:round"></path><path d="M46.44,359.82s-1-1.1-2.43-2.83" style="fill:none;stroke:#263238;stroke-linecap:round;stroke-linejoin:round"></path></g><g id="freepik--Floor--inject-72"><line x1="24.68" y1="428.72" x2="472.58" y2="428.72" style="fill:none;stroke:#263238;stroke-linecap:round;stroke-linejoin:round"></line></g><g id="freepik--Character--inject-72"><path d="M271.45,189.46c19.63,19.51,42.42,43.12,49.61,51s8.84,45.75,21.78,70.41a492.18,492.18,0,0,1,29.08,66.55l21.76-11.11s-22.07-63.22-27.89-104.43c-3.6-25.48-11.73-25.21-17.68-41.49-23.93-65.55-51-93.94-51-93.94" style="fill:#fff"></path><g style="clip-path:url(#freepik--clip-path--inject-72)"><path d="M393.68,366.34l-21.76,11.11a491.56,491.56,0,0,0-29.08-66.55c-12.94-24.66-14.6-62.52-21.78-70.42s-30-31.52-49.61-51l25.64-63s19,20,39.29,65.05c-.63,17.71-2.36,40.62-7,46.6a19,19,0,0,1,7.39,16c-.53,10.51,4.22,37.46,9,47.45s28,53.27,28,53.27a99.19,99.19,0,0,1,13.6-7.92C391,358.65,393.68,366.34,393.68,366.34Z" style="fill:#855CD3;opacity:0.4"></path><path d="M369.43,281.89s-10.55-10.2-13.72-24.83c0,0,5.49,5.12,10.39,7C367,269.71,368.1,275.72,369.43,281.89Z" style="fill:#855CD3;opacity:0.4"></path></g><path d="M271.45,189.46c19.63,19.51,42.42,43.12,49.61,51s8.84,45.75,21.78,70.41a492.18,492.18,0,0,1,29.08,66.55l21.76-11.11s-22.07-63.22-27.89-104.43c-3.6-25.48-11.73-25.21-17.68-41.49-23.93-65.55-51-93.94-51-93.94" style="fill:none;stroke:#263238;stroke-linecap:round;stroke-linejoin:round"></path><path d="M227.65,139.72c2.26,26.43,37.33,49.75,37.83,54.57s10.88,4.32,16.62-4.41,21-9.68,25.44-16.12,16.2-12.34,16.2-12.34,4.33,0,2-4.73-4.34-13.46-9.05-23.33-6.72-41-6.72-41-78.72,2.76-78.43,7l.28,4.21S225,108.71,227.65,139.72Z" style="fill:#263238"></path><path d="M300,174.39l5.37-6.06a7.8,7.8,0,0,0,3.69,0,8.76,8.76,0,0,0,3.52-2.64c.7-.79,2.55-1.58,2.81-2.37s0-2.69,2-2.66,2.71,0,3.4,0,.94,1,1.73,0,4.1.33,3.92-1.21a3.63,3.63,0,0,1,1.09-2.72l1.85,2.38a1.91,1.91,0,0,0,1.85,1.56c1.58,0,2-.77,1.38,1.6a13.31,13.31,0,0,0,.26,5.54l-2.7.79-1.05,2.11-2.66.31s-.77,2.59-1.83,3.38-5.27,1.06-5.54,1.85-2.65,2.37-2.65,2.37-3.76.67-3.85,1.13-1.41-.07-1.14,1.77,1.08,3.17-1.44,3.17a42.37,42.37,0,0,1-4.63-.26,36.38,36.38,0,0,1-5.37,3.1c-2.54,1.12-6.44,3-6.44,3s-3.31,2.73-3.53,0,0-12.48,0-12.48Z" style="fill:#855CD3;stroke:#263238;stroke-linecap:round;stroke-linejoin:round"></path><path d="M364.29,366.24s15.3-7.39,20.73-6.42c0,0,6.34-3.41,9-2.75,0,0,1.92,11.27,12.08,16.66s26.84,1.79,34.75,3,7.18,6.45,7.18,6.45-27.76,23.36-68.13,35c0,0-7.45-14.55-10-37.56Z" style="fill:#855CD3"></path><g style="clip-path:url(#freepik--clip-path-2--inject-72)"><path d="M424.14,395.88a8.23,8.23,0,0,0-1.76-1.55,4.07,4.07,0,0,0-2.08-.78c-2.95-.33-5.73,2-8.43,3.66-3.31,2-7.14,3.16-10.91,1.73-4.08-1.54-6.92-5.12-8.78-8.93a44.49,44.49,0,0,1-2.3-5.9c-.82-2.52-.52-5.18-.91-7.76-.66-4.4-4.34-7.73-4-12.39a11.91,11.91,0,0,1,1.34-4.77c-.76.36-1.26.63-1.26.63-5.43-1-20.73,6.42-20.73,6.42L370,380.69c2.51,23,10,37.56,10,37.56a204.23,204.23,0,0,0,45.94-20A13.67,13.67,0,0,0,424.14,395.88Z" style="fill-opacity:0.7000000000000001;opacity:0.2"></path></g><path d="M364.29,366.24s15.3-7.39,20.73-6.42c0,0,6.34-3.41,9-2.75,0,0,1.92,11.27,12.08,16.66s26.84,1.79,34.75,3,7.18,6.45,7.18,6.45-27.76,23.36-68.13,35c0,0-7.45-14.55-10-37.56Z" style="fill:none;stroke:#263238;stroke-linecap:round;stroke-linejoin:round"></path><path d="M394,390.67c1.28,4.4-.63,8.83-4.26,9.89s-7.63-1.65-8.91-6.06.62-8.83,4.26-9.89S392.73,386.26,394,390.67Z" style="fill:#fff;stroke:#263238;stroke-linecap:round;stroke-linejoin:round"></path><path d="M426.91,376.47s-6,8.6,1.82,20.13c0,0-7.83,6-48.8,21.65l.19,2.72s46.34-14.26,69.21-35.64l-1.27-2.12S453.64,373.11,426.91,376.47Z" style="fill:#fff;stroke:#263238;stroke-linecap:round;stroke-linejoin:round"></path><path d="M433.23,393.56s11.59-6.51,14.83-10.35" style="fill:none;stroke:#263238;stroke-linecap:round;stroke-linejoin:round"></path><path d="M385,359.82c6.13,2,10.05,16.78,18.28,21.24s20.91,2.49,20.91,2.49" style="fill:none;stroke:#263238;stroke-linecap:round;stroke-linejoin:round"></path><path d="M421.82,376s-4.74,4-5.26,9.55" style="fill:none;stroke:#263238;stroke-linecap:round;stroke-linejoin:round;stroke-width:2px"></path><path d="M408.64,384.72a20,20,0,0,1,7.73-8.71" style="fill:none;stroke:#263238;stroke-linecap:round;stroke-linejoin:round;stroke-width:2px"></path><path d="M401.66,382.66a21.69,21.69,0,0,1,8.88-7.84" style="fill:none;stroke:#263238;stroke-linecap:round;stroke-linejoin:round;stroke-width:2px"></path><path d="M395.44,377.44s2.44-3.34,9.21-5.19" style="fill:none;stroke:#263238;stroke-linecap:round;stroke-linejoin:round;stroke-width:2px"></path><path d="M391.16,371.09s1.56-2.19,8.37-3.85" style="fill:none;stroke:#263238;stroke-linecap:round;stroke-linejoin:round;stroke-width:2px"></path><path d="M387.75,364.68s4.39-3.19,7.75-3" style="fill:none;stroke:#263238;stroke-linecap:round;stroke-linejoin:round;stroke-width:2px"></path><path d="M301.16,138.61s2.29,39.17-21.86,104.65c-6,16.26.38,21.31-13.36,43.08C243.73,321.52,219.66,384,219.66,384l-23.78-5.61a491.88,491.88,0,0,0,20.87-69.56c6.08-27.17,29.31-57.12,28.94-67.79s-2.47-43.43-4.83-71" style="fill:#fff"></path><g style="clip-path:url(#freepik--clip-path-3--inject-72)"><path d="M227.4,364.9c-4.79,11.47-7.74,19.12-7.74,19.12l-23.78-5.61s1.86-4.61,4.67-12.68C210,363.39,221.53,364.22,227.4,364.9Z" style="fill:#855CD3;opacity:0.4"></path><path d="M265.52,287c-2.6,4.15-5.22,8.67-7.82,13.42-1.34-3-3.23-9.54-.62-19.82C257.08,280.6,257.17,291.9,265.52,287Z" style="fill:#855CD3;opacity:0.4"></path><path d="M290.81,207.36c-7.14,2-20.94,3.82-42.26-2.32,0,0-1.87,22.21,0,36.07,2.72,20.2-3.55,26.16-3.55,26.16l-1.38-8.33s-8.52,10.61-17.3,24.09c1.33-2.76,2.71-5.49,4.09-8.15.2-.4.41-.79.62-1.19,1.65-3.15,3.29-6.19,4.84-9.1l1-1.91c1.44-2.68,2.78-5.21,4-7.58.14-.29.29-.58.42-.86.83-1.68,1.57-3.27,2.19-4.74l.39-.93c.47-1.16.86-2.25,1.16-3.26.08-.28.15-.56.22-.82s.14-.55.2-.81.1-.49.13-.72a3.87,3.87,0,0,0,.06-.46.76.76,0,0,0,0-.21c0-.14,0-.28,0-.42a7.66,7.66,0,0,0,0-.82c-.37-10.67-2.47-43.42-4.83-71l59.9-31.23.41.06C301.29,141.69,301.92,166.34,290.81,207.36Z" style="fill:#855CD3;opacity:0.4"></path></g><path d="M301.16,138.61s2.29,39.17-21.86,104.65c-6,16.26.38,21.31-13.36,43.08C243.73,321.52,219.66,384,219.66,384l-23.78-5.61a491.88,491.88,0,0,0,20.87-69.56c6.08-27.17,29.31-57.12,28.94-67.79s-2.47-43.43-4.83-71" style="fill:none;stroke:#263238;stroke-linecap:round;stroke-linejoin:round"></path><path d="M229,102.23s-18.34,26.27,7.77,74.27c0,0-6.18,5.07-.38,7.49,0,0-1.82,10.95,3.63,11.75s54-.34,61.2-9.42c2.17-2.73-.12-7.85-.12-7.85,13.35-52,7.67-72.69,7.67-72.69Z" style="fill:#263238"></path><g style="clip-path:url(#freepik--clip-path-4--inject-72)"><path d="M301.1,178.46s2.29,5.12.12,7.86c-7.21,9.07-55.75,10.22-61.2,9.42S236.39,184,236.39,184c-5.8-2.42.38-7.49.38-7.49a129.67,129.67,0,0,1-9.32-21.18C216,120.83,229,102.23,229,102.23l79.77,3.54a40.38,40.38,0,0,1,.93,6.61C310.46,122.08,310.21,143,301.1,178.46Z" style="fill:#fff;opacity:0.2"></path><path d="M239.93,125.08s2.9,25.31,7.52,34.54c0,0-2.16,11.08,1.1,13.46s.35,6.32,1.41,9.75" style="fill:none;stroke:#fff;stroke-linecap:round;stroke-linejoin:round"></path><path d="M269,135.18c-5,7.57-10.46,15.85-17.68,21.54" style="fill:none;stroke:#fff;stroke-linecap:round;stroke-linejoin:round"></path><path d="M274.48,126.48c-.63,1-1.27,2.09-1.92,3.13" style="fill-opacity:0.7000000000000001;opacity:0.2"></path><path d="M244.47,161.47s-5.59,1.58-7.7,0" style="fill:none;stroke:#fff;stroke-linecap:round;stroke-linejoin:round"></path><path d="M239.93,175.71a13.83,13.83,0,0,0,7.52-1.45" style="fill:none;stroke:#fff;stroke-linecap:round;stroke-linejoin:round"></path><path d="M261.94,168.32c7.87-3.07,18.24-7,23.09-14.37" style="fill:none;stroke:#fff;stroke-linecap:round;stroke-linejoin:round"></path><path d="M251.27,172c1.44-.43,2.87-.89,4.29-1.37" style="fill:none;stroke:#fff;stroke-linecap:round;stroke-linejoin:round"></path><path d="M290.39,169.63A34.36,34.36,0,0,1,286.5,172" style="fill:none;stroke:#fff;stroke-linecap:round;stroke-linejoin:round"></path><path d="M305.34,147.76a42,42,0,0,1-9.94,17.49" style="fill:none;stroke:#fff;stroke-linecap:round;stroke-linejoin:round"></path><path d="M309.7,112.38C299.55,119,284.42,127.5,273.56,128c0,0-24.13,7.11-34.94,15-4.32,3.16-8.14,7.84-11.17,12.31C216,120.83,229,102.23,229,102.23l79.77,3.54A40.38,40.38,0,0,1,309.7,112.38Z" style="fill-opacity:0.7000000000000001;opacity:0.2"></path></g><path d="M229,102.23s-18.34,26.27,7.77,74.27c0,0-6.18,5.07-.38,7.49,0,0-1.82,10.95,3.63,11.75s54-.34,61.2-9.42c2.17-2.73-.12-7.85-.12-7.85,13.35-52,7.67-72.69,7.67-72.69Z" style="fill:none;stroke:#263238;stroke-miterlimit:10"></path><path d="M194.17,371.69s17,.23,21.42,3.53c0,0,7.19-.21,9.31,1.58,0,0-3.33,10.94,3.35,20.3s23.2,13.6,29.72,18.25,3.53,9,3.53,9-35.27,8.47-76.6.86c0,0-.16-16.34,7.89-38.05Z" style="fill:#855CD3;stroke:#263238;stroke-linecap:round;stroke-linejoin:round"></path><path d="M245.6,408.84s-9.41,3-7.57,16.81l-53.13-.45-.05,3.52h76.84l-.19-4.38S271,417.8,245.6,408.84Z" style="fill:#fff;stroke:#263238;stroke-linecap:round;stroke-linejoin:round"></path><path d="M241.25,425.47s14.59.16,20.25-1.13" style="fill:none;stroke:#263238;stroke-linecap:round;stroke-linejoin:round"></path><path d="M215.59,375.22c4.59,4.51,1.48,19.5,6.85,27.18S240,414,240,414" style="fill:none;stroke:#263238;stroke-linecap:round;stroke-linejoin:round"></path><path d="M241.25,406.17s-6,1.41-9,6.19" style="fill:none;stroke:#263238;stroke-linecap:round;stroke-linejoin:round;stroke-width:2px"></path><path d="M225.58,408.05a20,20,0,0,1,10.81-4.33" style="fill:none;stroke:#263238;stroke-linecap:round;stroke-linejoin:round;stroke-width:2px"></path><path d="M220.25,403.09a21.73,21.73,0,0,1,11.45-3" style="fill:none;stroke:#263238;stroke-linecap:round;stroke-linejoin:round;stroke-width:2px"></path><path d="M217,395.64s3.67-1.9,10.56-.52" style="fill:none;stroke:#263238;stroke-linecap:round;stroke-linejoin:round;stroke-width:2px"></path><path d="M216,388s2.37-1.26,9.2.31" style="fill:none;stroke:#263238;stroke-linecap:round;stroke-linejoin:round;stroke-width:2px"></path><path d="M215.85,380.78s5.36-.88,8.28.77" style="fill:none;stroke:#263238;stroke-linecap:round;stroke-linejoin:round;stroke-width:2px"></path><path d="M234.92,192.33l-1.58-2.11h4.75l3.43-1.85s4.47,5,5.93,2,2-4.35,3.56-4.09,4.87,1.32,7.31,1.58,18.49,2.11,20-.79,7.25-.06,9.11-.82a11.63,11.63,0,0,1,4.56-.51s1.1,1.22,2,0,3.33-3.51,2.75-5.29,3.59.72,5.07,0,2.37-.72,2.45.6a12.3,12.3,0,0,0,1.14,3.43s-.17,2.11-1.14,2.9.18,1.32,0,2.11-4.23,1.32-4.23,1.32-.7-.27-1,1.58a2.72,2.72,0,0,1-2.33,2.11s-2.32-1.27-2.61,0-3,1.3-5.08,2.89a2,2,0,0,1-2.49,1.59c-2-.53-5.34-.36-5.51.09s-2.7,0-2.7,0,.15.74-2.75.19l-2.9-.54-2.57.74h-3.51s.8-.57-2.63,0-5,2.69-7.12,1.1-2.9-4.22-4.48-1.58-.44,1.42-3.78,2.16a10,10,0,0,1-5.28,0l-6.5.33s0-3.29-1.32-4.08l-1.32-.78h0Z" style="fill:#855CD3;stroke:#263238;stroke-linecap:round;stroke-linejoin:round"></path><path d="M311.72,110.48s-33.54,7.26-57.28,17.65c-13,5.71-20.64,12.35-25.91,16.85-4.34,3.71-7.09,6-9.95,5.06-6.34-2,0-9.6,0-9.6s-3-14-2.82-24.81c.15-9.56,13.67-18.16,16.89-34.69l2.12-.46c28-5.88,53.37-7.64,75.89-6.27,1.14,9.66,3.55,27.62,5.92,30C319.85,107.4,311.72,110.48,311.72,110.48Z" style="fill:#fff"></path><path d="M250,118.54c-10.27,3-31.42,21.9-31.42,21.9s-3-14-2.82-24.81c.15-9.56,13.67-18.16,16.89-34.69l2.12-.46q15.78-3.3,30.4-4.92C257.62,82.35,241.9,86.08,241,89.37c-1.06,4,5.81,1.59,5.42,10.29s-18.51,14.27-18.51,14.27S260.27,115.48,250,118.54Z" style="fill-opacity:0.7000000000000001;opacity:0.2"></path><path d="M310.9,76.19c1.21,9.94,3.46,25.79,5.68,28,3.27,3.22-4.86,6.3-4.86,6.3s-33.54,7.26-57.28,17.65c-13,5.71-20.64,12.35-25.91,16.85-4.34,3.71-7.09,6-9.95,5.06-6.34-2,0-9.6,0-9.6s-3-14-2.82-24.81c.15-9.56,13.67-18.16,16.89-34.69" style="fill:none;stroke:#263238;stroke-linecap:round;stroke-linejoin:round"></path><path d="M357,143.63s-6.53,4.41-6.43,24,11.78,138.33-14,176.68-47.51,4.13-46.52-29.95h-3.33s-2,41.3,18.56,50.42,43.51-16,49.05-57.77-2.11-139.54-.26-147.49a17.51,17.51,0,0,1,8.17-11.18Z" style="fill:#263238"></path><path d="M381,149.82c0,.19-.09.37-.14.55a.29.29,0,0,0,0,.09c-.1.38-.2.73-.3,1.06a16,16,0,0,1-.58,1.63c-.05.13-.1.26-.16.38s-.12.27-.19.4a5.71,5.71,0,0,1-2.56,2.92l-.13.05s0,0,0,0l-.1,0a1.5,1.5,0,0,1-.49.09c-1.69,1.29-4,3.6-6,2.15a65.82,65.82,0,0,1-6.53,2.87,23.46,23.46,0,0,1-5.14,1.08c-.63,0-2.1-.53-3.38-3.51h0a.67.67,0,0,0,0-.12,13.55,13.55,0,0,1-.59-1.65c-.81-2.47-2-7.1-1.19-11.24-.35-.44-.72-.88-1.12-1.34-5.93-6.78-3-18-7.38-23.79-3-4-25.33-29.92-39.86-47.56,1.91.07,3.81.16,5.68.28a213.33,213.33,0,0,1,27.64,3.45c14.14,33.86,21.51,34.68,25.79,43.83C369.67,133.37,381.74,146.53,381,149.82Z" style="fill:#fff"></path><g style="clip-path:url(#freepik--clip-path-5--inject-72)"><path d="M380.84,150.37a.29.29,0,0,0,0,.09c-.1.38-.2.73-.3,1.06a16,16,0,0,1-.58,1.63c-.05.13-.1.26-.16.38s-.12.27-.19.4a5.71,5.71,0,0,1-2.56,2.92l-.13.05s0,0,0,0l-.1,0a1.5,1.5,0,0,1-.49.09c-1.69,1.29-4,3.6-6,2.15a65.82,65.82,0,0,1-6.53,2.87,23.46,23.46,0,0,1-5.14,1.08c-.63,0-2.1-.53-3.38-3.51h0a.67.67,0,0,0,0-.12,13.55,13.55,0,0,1-.59-1.65c-.81-2.47-2-7.1-1.19-11.24-.35-.44-.72-.88-1.12-1.34-5.93-6.78-3-18-7.38-23.79-3-4-25.33-29.92-39.86-47.56,1.91.07,3.81.16,5.68.28,14.79,20.22,33.84,45.56,37.61,47.28,0,0,4.93,21,10,26.2.67.69.76,2.33,2.13,3.62l2.64-2.58a37.63,37.63,0,0,0,3.41,6c1,1.46,2.11,2.77,3.73,1.1.51-.53.91-1.16,1.46-1.64,1.34-1.18,3,.17,4.39-.64,1-.54,1.22-1.81,2-2.58S379.87,150.45,380.84,150.37Z" style="fill:#855CD3;opacity:0.4"></path></g><path d="M358.57,163.14c1.07-.06,5.14-3.66,5.14-3.66" style="fill:#fff;stroke:#263238;stroke-linecap:round;stroke-linejoin:round"></path><path d="M361.14,157.6c1.39,1.78,3.56-.79,5.15,0s4,1.23,4.77,0,1.46-2.49,4.52-2.24,2.21-3.26,4.55-4" style="fill:none;stroke:#263238;stroke-linecap:round;stroke-linejoin:round"></path><path d="M357.32,159.48c-1.25-3,.95-4.14.95-4.14s-2.2-3.88-4.91-8.72" style="fill:none;stroke:#263238;stroke-linecap:round;stroke-linejoin:round"></path><path d="M338.32,77.66c14.14,33.86,21.51,34.68,25.79,43.83,5.56,11.88,17.63,25,16.87,28.33,0,.19-.09.37-.14.55a.29.29,0,0,0,0,.09c-.1.38-.2.73-.3,1.06a16,16,0,0,1-.58,1.63c-.05.13-.1.26-.16.38s-.12.27-.19.4a5.71,5.71,0,0,1-2.56,2.92l-.13.05s0,0,0,0l-.1,0a1.5,1.5,0,0,1-.49.09c-1.69,1.29-4,3.6-6,2.15a65.82,65.82,0,0,1-6.53,2.87,23.46,23.46,0,0,1-5.14,1.08c-.63,0-2.1-.53-3.38-3.51h0a.67.67,0,0,0,0-.12,13.55,13.55,0,0,1-.59-1.65c-.81-2.47-2-7.1-1.19-11.24-.35-.44-.72-.88-1.12-1.34-5.93-6.78-3-18-7.38-23.79-3-4-25.33-29.92-39.86-47.56" style="fill:none;stroke:#263238;stroke-linecap:round;stroke-linejoin:round"></path><path d="M359,152.81s9.84-11.44,18.64-12.33c0,0,3.36-1.87.43-3.45-1.28-.69-2.51-6.19-5.14-5.63-1,.21-26.2,15.28-21.94,34h2.17S353.76,157.93,359,152.81Z" style="fill:#263238"></path></g><g id="freepik--Dog--inject-72"><path d="M196.63,349.71c-.9,5.42-3.25,29.25-11.37,35.38-4.6,3.47-3.8,15.53-12.52,30.69-3,5.19,6.56,11.8,10.89,12.94h10.83s2.52-7.87-9.22-9.49c-2.65-.37,5.72-14.12,7.87-15.63,8-5.69,14.89-17.87,14.89-17.87s28.16-13.27,31.95-20.31Z" style="fill:#757575"></path><g style="clip-path:url(#freepik--clip-path-6--inject-72)"><path d="M240,365.42c-3.79,7-31.95,20.31-31.95,20.31s-6.84,12.18-14.89,17.87a9.07,9.07,0,0,0-1.7,1.9c-3.15,4.2-8.34,13.43-6.18,13.73,11.75,1.63,9.23,9.49,9.23,9.49H183.63c-4.34-1.14-13.88-7.75-10.89-12.94a74.1,74.1,0,0,0,6.83-16.24c2.11-7.13,2.91-12.36,5.69-14.45,8.12-6.14,10.47-30,11.36-35.38Z" style="fill:#fff;opacity:0.6000000000000001"></path><path d="M240,365.42c-3.79,7-31.95,20.31-31.95,20.31s-6.84,12.18-14.89,17.87a9.07,9.07,0,0,0-1.7,1.9,44.33,44.33,0,0,1-11.84-6c2.11-7.13,2.91-12.36,5.69-14.45,8.12-6.14,10.47-30,11.36-35.38Z" style="fill-opacity:0.7000000000000001;opacity:0.2"></path></g><path d="M196.63,349.71c-.9,5.42-3.25,29.25-11.37,35.38-4.6,3.47-3.8,15.53-12.52,30.69-3,5.19,6.56,11.8,10.89,12.94h10.83s2.52-7.87-9.22-9.49c-2.65-.37,5.72-14.12,7.87-15.63,8-5.69,14.89-17.87,14.89-17.87s28.16-13.27,31.95-20.31Z" style="fill:none;stroke:#263238;stroke-linecap:round;stroke-linejoin:round"></path><path d="M123.52,336.12s20,26.66,14.08,35.45c-7.31,10.85,3.25,11.72,4.33,38.25.22,5.34,3.84,8.21,6.4,12.08,2.71,4.11,2.06,6.82,4.25,6.82h13.18c3-4.27.45-7.79-7.58-13.48-4.08-2.88-1.63-33.59-2.71-36.83s28.7-21.22,26-42.29Z" style="fill:#757575"></path><g style="clip-path:url(#freepik--clip-path-7--inject-72)"><path d="M165.75,428.72H152.57c-2.18,0-1.53-2.71-4.24-6.82-2.56-3.88-6.18-6.75-6.4-12.08-.65-16.16-4.84-22.8-6.36-28-1-3.32-.82-6,2-10.26,5.93-8.79-14.07-35.46-14.07-35.46h58c2.7,21.07-27.08,39-26,42.29.5,1.46.26,8.58.24,16.19,0,9.17.24,19.07,2.47,20.65C166.22,420.93,168.74,424.44,165.75,428.72Z" style="fill:#fff;opacity:0.6000000000000001"></path><path d="M155.47,378.41c.5,1.46.26,8.58.24,16.19a150.2,150.2,0,0,1-20.14-12.76c-1-3.32-.82-6,2-10.26,5.93-8.79-14.07-35.46-14.07-35.46h58C184.17,357.19,154.39,375.16,155.47,378.41Z" style="fill-opacity:0.7000000000000001;opacity:0.2"></path></g><path d="M123.52,336.12s20,26.66,14.08,35.45c-7.31,10.85,3.25,11.72,4.33,38.25.22,5.34,3.84,8.21,6.4,12.08,2.71,4.11,2.06,6.82,4.25,6.82h13.18c3-4.27.45-7.79-7.58-13.48-4.08-2.88-1.63-33.59-2.71-36.83s28.7-21.22,26-42.29Z" style="fill:none;stroke:#263238;stroke-linecap:round;stroke-linejoin:round"></path><path d="M122.78,277.31c13.54-8.76,93.89,10.66,99.3,7.95s13.54.49,13.54.49,8.12-5.36,10.29-5.36,10-2.26,10-2.26,16,36.38,27.9,46.13c0,0-15.16,41.12-22.2,44.95,0,0,7.52,38,16.72,43.38s11.6,7.52,18.1,7,10.29,6.5,4.33,8.13l-25.5,1c-3.79-1.08-3.68-5.9-8.55-7s-8.35-11.37-10.52-13.54-20.1-23.15-24.44-36.63c0,0-13.47,3.05-40-17-14.29-10.81-50.9-9-50.9-9s-20.58,24.78-35.2,32.73-13.77,32.12-13.77,32.12V421.2s12.2,2.05,10.58,7.52H79.65s-6-3.73-3.25-17.27-.87-29.77-.71-33.2S89.4,371,90.48,359.11s.83-50.45,14.37-61.82c0,0-13.48-17.27-2.65-36.77s39.53-8.51,34.12,3.87c0,0-4.88-4.8-13,0S122.78,277.31,122.78,277.31Z" style="fill:#757575"></path><g style="clip-path:url(#freepik--clip-path-8--inject-72)"><path d="M303.31,426.06a4.15,4.15,0,0,1-2.54,1.64l-25.5,1c-3.79-1.09-3.68-5.9-8.55-7-1.8-.41-3.41-2.05-4.84-4.09-2.42-3.48-4.31-8.08-5.68-9.44-2.16-2.17-20.09-23.15-24.43-36.62,0,0-13.47,3.05-40-17-13.13-9.94-45.08-9.24-50.2-9.06l-.7,0s-20.59,24.78-35.21,32.72-13.75,32.13-13.75,32.13V421.2s12.19,2.05,10.56,7.52H79.65s-6-3.73-3.25-17.27c1.33-6.62,1.15-13.91.63-20-.53-6.35-1.42-11.45-1.34-13.2.12-2.46,7.13-5.1,11.47-10.81l0,0a15.77,15.77,0,0,0,3.3-8.29c1.09-11.93.83-50.46,14.37-61.82,0,0-13.49-17.28-2.66-36.77,6.66-12,20-12.46,28.11-8.19,5.1,2.68,8.12,7.25,6,12,0,0-4.87-4.8-13,0s-.54,12.92-.54,12.92c13.54-8.76,93.89,10.66,99.31,7.95s13.54.5,13.54.5,4-2.63,7.09-4.19a9.11,9.11,0,0,1,3.19-1.18c2.17,0,10-2.26,10-2.26s16,36.37,27.9,46.12c0,0-15.17,41.12-22.21,45,0,0,7.52,38,16.73,43.38s11.6,7.53,18.1,7C301.57,419.15,305,423.43,303.31,426.06Z" style="fill:#fff;opacity:0.8"></path><path d="M91,425.17c7.59,0,11.43,3.55,11.43,3.55H79.65s-6-3.73-3.25-17.27c1.33-6.62,1.15-13.91.63-20,1.26,3.31,2.73,6.15,4.25,7.38,4,3.19-2.89,20.93-1.81,23.46S83.44,425.17,91,425.17Z" style="fill-opacity:0.7000000000000001;opacity:0.2"></path><path d="M130.3,252.34c-10.16-.84-13.28,5.31-13.28,5.31a4.07,4.07,0,0,1,.36-5.06c-11.91,5.42-7.22,18.91-7.22,18.91-2.89-1.3-4.69-5.51-4.69-5.51-2.3,12,10.82,21.85,10.82,21.85-13,6-18.05,26.13-20.57,43.09s-1.45,31.77-8.53,36.48h0a15.77,15.77,0,0,0,3.3-8.29c1.09-11.93.83-50.46,14.37-61.82,0,0-13.49-17.28-2.66-36.77C108.85,248.56,122.21,248.07,130.3,252.34Z" style="fill-opacity:0.7000000000000001;opacity:0.2"></path><path d="M221.1,352.38c5.24,13.42,10.67,19.2,10.67,19.2s-13.47,3.05-40-17c-13.13-9.94-45.08-9.24-50.2-9.06,1.85-6.66.38-11.26.38-11.26s35.79-.69,53.85,9.94S221.1,352.38,221.1,352.38Z" style="fill-opacity:0.7000000000000001;opacity:0.2"></path><path d="M261.62,369.21c.54-12.28-5.24-19.87-.9-23.69s6,8.52,6,8.52c3.47-9,4.1-22.74,4.1-22.74s-13-11.92-23.46-34.31c-3.59-7.65-4.71-12.44-4.64-15.42a9.11,9.11,0,0,1,3.19-1.18c2.17,0,10-2.26,10-2.26s16,36.37,27.9,46.12C283.83,324.25,268.66,365.37,261.62,369.21Z" style="fill-opacity:0.7000000000000001;opacity:0.2"></path><path d="M303.31,426.06a4.15,4.15,0,0,1-2.54,1.64l-25.5,1c-3.79-1.09-3.68-5.9-8.55-7-1.8-.41-3.41-2.05-4.84-4.09,2.17.45,4,.53,4.84-.05,3.13-2.15,7,6.13,8.73,8.31s19.56-2.54,25.17-.73C301.56,425.47,302.46,425.77,303.31,426.06Z" style="fill-opacity:0.7000000000000001;opacity:0.2"></path></g><path d="M122.78,277.31c13.54-8.76,93.89,10.66,99.3,7.95s13.54.49,13.54.49,8.12-5.36,10.29-5.36,10-2.26,10-2.26,16,36.38,27.9,46.13c0,0-15.16,41.12-22.2,44.95,0,0,7.52,38,16.72,43.38s11.6,7.52,18.1,7,10.29,6.5,4.33,8.13l-25.5,1c-3.79-1.08-3.68-5.9-8.55-7s-8.35-11.37-10.52-13.54-20.1-23.15-24.44-36.63c0,0-13.47,3.05-40-17-14.29-10.81-50.9-9-50.9-9s-20.58,24.78-35.2,32.73-13.77,32.12-13.77,32.12V421.2s12.2,2.05,10.58,7.52H79.65s-6-3.73-3.25-17.27-.87-29.77-.71-33.2S89.4,371,90.48,359.11s.83-50.45,14.37-61.82c0,0-13.48-17.27-2.65-36.77s39.53-8.51,34.12,3.87c0,0-4.88-4.8-13,0S122.78,277.31,122.78,277.31Z" style="fill:none;stroke:#263238;stroke-linecap:round;stroke-linejoin:round"></path><path d="M231.76,371.57s-11.84-8.72-10.76-24.22" style="fill:none;stroke:#263238;stroke-linecap:round;stroke-linejoin:round"></path><path d="M208,352.38s6.27,11,12.93,13" style="fill:none;stroke:#263238;stroke-linecap:round;stroke-linejoin:round"></path><path d="M143,326.72c-2.7,4,1,9.32-2.16,18.8" style="fill:#fff;stroke:#263238;stroke-linecap:round;stroke-linejoin:round"></path><path d="M243.86,278.36s-1.42,8.81,9.66,25.07,22.85,28.27,28,28.5c0,0,3.53-3.53,6.13-3.76,0,0,4.27-1.45-12.23-26.39-5.16-7.81-26.6-27.22-26.6-27.22S247,274.56,243.86,278.36Z" style="fill:#263238"></path><path d="M245.91,274c-4.06,4-.25,20.77,14.47,26.37,0,0,18.2,23.13,23.44,23.92,10.83,1.62,26.54-8.13,26.54-10.83S321.81,300,321.81,300s9.13-6.1,4.25-12.6,2.06-14.38-2.42-15.2c0,0-8.54-4.57-10.94-11.11-.15-.43-1.8.32-1.8.32s.54-2.35-1.68-2.54c0,0,.37-2.52-1.64-2.11a12.82,12.82,0,0,0-7-7.06c-5.19-2.32-21.13-2.31-28.17,3.61S248.07,271.85,245.91,274Z" style="fill:#757575"></path><g style="clip-path:url(#freepik--clip-path-9--inject-72)"><path d="M321.8,300s-11.44,10.68-11.44,13.39c0,1.52-4.92,5.23-11.13,7.93-4.9,2.12-10.63,3.61-15.4,2.9-5.26-.78-23.45-23.9-23.45-23.9-12.39-4.72-17-17.37-15.79-23.63a5.19,5.19,0,0,1,1.32-2.75c2.16-2.11,19.49-14.7,26.54-20.63s23-5.93,28.17-3.62a12.93,12.93,0,0,1,7,7.07c2-.41,1.64,2.11,1.64,2.11,2.22.19,1.69,2.53,1.69,2.53s1.64-.74,1.79-.32c2.39,6.55,10.94,11.12,10.94,11.12,4.47.82-2.45,8.71,2.42,15.2S321.8,300,321.8,300Z" style="fill:#fff;opacity:0.8"></path><path d="M299.23,321.35c-4.9,2.12-10.63,3.61-15.4,2.9-5.26-.78-23.45-23.9-23.45-23.9-12.39-4.72-17-17.37-15.79-23.63.71,5,2.51,10.68,6.68,14.76,9.11,8.87,14.4,6.51,17.66,7.32s2.44,12.46,10.28,16,1.28-6.77,6.73-10C290.78,301.88,289,316,299.23,321.35Z" style="fill-opacity:0.7000000000000001;opacity:0.2"></path></g><path d="M245.91,274c-4.06,4-.25,20.77,14.47,26.37,0,0,18.2,23.13,23.44,23.92,10.83,1.62,26.54-8.13,26.54-10.83S321.81,300,321.81,300s9.13-6.1,4.25-12.6,2.06-14.38-2.42-15.2c0,0-8.54-4.57-10.94-11.11-.15-.43-1.8.32-1.8.32s.54-2.35-1.68-2.54c0,0,.37-2.52-1.64-2.11a12.82,12.82,0,0,0-7-7.06c-5.19-2.32-21.13-2.31-28.17,3.61S248.07,271.85,245.91,274Z" style="fill:none;stroke:#263238;stroke-linecap:round;stroke-linejoin:round"></path><path d="M300.62,251.42c-4.61-1.63-11.65-1.57-12.33,4.76s0,11.75-2.35,13.92" style="fill:none;stroke:#263238;stroke-linecap:round;stroke-linejoin:round"></path><path d="M272,250.52c-4.83-5.33-23.42,6.81-20.44,16.6s-.32,18.05,4.6,18.05c0,0,0,9,10.52,10.38s8.29-41.83,15.41-46.36c0,0,.61-1.32-3.18-.9A19.76,19.76,0,0,0,272,250.52Z" style="fill:#855CD3;stroke:#263238;stroke-linecap:round;stroke-linejoin:round"></path><path d="M256.2,285.17c7.31,1.72,13.54,4.7,17.06-11.28s1.35-19.78,1.35-19.78" style="fill:none;stroke:#263238;stroke-linecap:round;stroke-linejoin:round"></path><path d="M326.06,287.43c-4.87-6.49,2.05-14.38-2.42-15.2l-.18-.1a4,4,0,0,0,.3-2.71c-.42-1.3-3.19,2.5-4.46-2.43-.74-2.85-4.55-4.18-6-4.59a12.26,12.26,0,0,1-.56-1.29c-.15-.42-1.79.32-1.79.32-1.88,1.7-3.1,5.2-3.67,7.2-.07-2.37-.91-4.07-2.3-4l-.44-1.22c3.87-2.55.75-7.51-.75-9.18,0,0-2.82-1.09-6.38,2.57s-3,14.36-5.42,16c0,0,8.89,1.63,6.74,6s-7.29,11.92-2.68,15.72.77,7.58,2.68,11.91c1.52,3.43,2.71,10,1.58,13.43a4,4,0,0,1-1.56,1.75c6.46-2.71,11.65-6.59,11.65-8.15,0-2.71,11.44-13.39,11.44-13.39S330.93,293.93,326.06,287.43Z" style="fill:#855CD3"></path><g style="clip-path:url(#freepik--clip-path-10--inject-72)"><path d="M313.79,308.21c-1.93,2.19-3.43,4.23-3.43,5.21-8.67-1.49-7.89-10.07-7.89-10.07C303.07,305.71,308.89,310.56,313.79,308.21Z" style="fill-opacity:0.7000000000000001;opacity:0.2"></path><path d="M321.8,300s-1.85,1.73-4.06,4c4.94-9.63-.8-16.23,1-21.75a80.21,80.21,0,0,1,5.1-11.59,6,6,0,0,1-.4,1.47l.18.1c4.47.82-2.45,8.71,2.42,15.2S321.8,300,321.8,300Z" style="fill-opacity:0.7000000000000001;opacity:0.2"></path><path d="M297.81,266.76c-1.69-5,.89-8.81,4.64-8.39S305,256,305,256s3.3,5.11-1.28,8.12c0,0,2.46-.27,1.28,3.88S300.08,273.45,297.81,266.76Z" style="fill-opacity:0.7000000000000001;opacity:0.2"></path></g><path d="M326.06,287.43c-4.87-6.49,2.05-14.38-2.42-15.2l-.18-.1a4,4,0,0,0,.3-2.71c-.42-1.3-3.19,2.5-4.46-2.43-.74-2.85-4.55-4.18-6-4.59a12.26,12.26,0,0,1-.56-1.29c-.15-.42-1.79.32-1.79.32-1.88,1.7-3.1,5.2-3.67,7.2-.07-2.37-.91-4.07-2.3-4l-.44-1.22c3.87-2.55.75-7.51-.75-9.18,0,0-2.82-1.09-6.38,2.57s-3,14.36-5.42,16c0,0,8.89,1.63,6.74,6s-7.29,11.92-2.68,15.72.77,7.58,2.68,11.91c1.52,3.43,2.71,10,1.58,13.43a4,4,0,0,1-1.56,1.75c6.46-2.71,11.65-6.59,11.65-8.15,0-2.71,11.44-13.39,11.44-13.39S330.93,293.93,326.06,287.43Z" style="fill:none;stroke:#263238;stroke-linecap:round;stroke-linejoin:round"></path><path d="M312.66,262.25s5.71,1.17,6.63,4.74c1.28,4.93,4,1.14,4.47,2.43,1.27,3.82-7.31,10.11-5.14,19.76,3.92,17.47-8.8,25.33-17.2,12.74" style="fill:none;stroke:#263238;stroke-linecap:round;stroke-linejoin:round"></path><path d="M310.9,264.5c-.19,2.72,5,1.13,5.45-.16C317.17,262,311.49,256.25,310.9,264.5Z" style="fill:#263238"></path><path d="M304.92,264.66c3.14-.25,3.46,8.42-1.17,13.7" style="fill:none;stroke:#263238;stroke-linecap:round;stroke-linejoin:round"></path><path d="M304.28,263c1.21,2.1.92,4.55-.66,5.46s-3.84-.06-5.05-2.16-.92-4.55.65-5.46S303.06,260.91,304.28,263Z" style="fill:#263238"></path><path d="M275.27,257.64s1.79,26-5.94,31.14-15.3,1.76-17.06-.94.8-10.56.8-10.56-.3,5,1.37,7.31a31.26,31.26,0,0,0,9.75,1.89C269.74,286.36,273,280.39,275.27,257.64Z" style="fill-opacity:0.7000000000000001;opacity:0.2"></path></g></svg>